<?xml version="1.0" encoding="utf-8"?>
<!-- Generator: Adobe Illustrator 25.0.1, SVG Export Plug-In . SVG Version: 6.00 Build 0)  -->
<svg version="1.1" id="Layer_1" xmlns="http://www.w3.org/2000/svg" xmlns:xlink="http://www.w3.org/1999/xlink" x="0px" y="0px"
	 viewBox="0 0 257 215.1" style="enable-background:new 0 0 257 215.1;" xml:space="preserve">
<style type="text/css">
	.st0{fill:#C4978C;}
	.st1{fill:#DBA89E;}
	.st2{fill:#F7BEAD;}
</style>
<path class="st0" d="M253.5,113c1.5-4.3,2.6-8.8,3.1-13.4c0.6-5,0.6-10.1-0.2-15.1c-0.7-4.9-2.5-9.5-5.5-13.5
	c-0.5-0.7-1.2-1.2-2-1.4c-0.8-0.2-1.6-0.1-2.3,0.3c-1.7,1.1-3.4,2.3-4.9,3.6l-1.6,1.2c-0.2,0.1-0.4,0.3-0.6,0.5
	c-0.8,0.7-1.7,1.3-2.5,2l-2.5,2l0.3-0.2c-3.1,2.5-6.8,5.3-10.7,8c-3.6,2.5-7.4,4.7-11.4,6.5c-2.1,0.9-4.3,1.5-6.5,1.8
	c-1.1,0.1-2.3,0.1-3.4,0c-0.8-0.1-1.5-0.3-2.3-0.6c-0.7-0.3-1.4-0.6-2-1c-0.6-0.4-1.1-0.9-1.6-1.4c-0.1-0.2-0.3-0.4-0.4-0.5
	l-0.1-0.3v-0.3c0-0.2,0.1-0.3,0.1-0.5c0.2-0.4,0.4-0.8,0.6-1.2c0.9-1.2,2-2.2,3.1-3.1c2.7-2,5.6-3.9,8.6-5.5c3.4-1.9,7-3.8,10.4-5.5
	l0.7-0.4c3.5-1.8,7.4-3.8,11.2-6c3.2-1.8,6.3-3.8,9.3-6.1c1.3-1,2.6-2.2,3.8-3.4c0.5-0.5,0.9-1,1.3-1.6c0.4-0.6,0.8-1.3,1.2-2
	c0.3-0.8,0.6-1.5,0.8-2.3c0.2-0.7,0.3-1.5,0.3-2.2c0.1-0.9,0-1.7-0.1-2.6c-0.3-1.8-0.8-3.6-1.7-5.2c-0.4-0.7-0.8-1.4-1.2-2
	c-1.1-1.5-2.4-3-3.8-4.3c-1.4-1.3-2.9-2.5-4.5-3.6c-1.9-1.3-3.9-2.6-5.8-3.7c-4.1-2.3-8.3-4.3-12.6-6c-4.4-1.8-9.1-3.5-14.2-5.2
	c-4.2-1.3-8.6-2.6-13.1-3.7c-4-1-7.5-1.8-10.8-2.3c-1.7-0.3-3.4-0.5-5.1-0.7c-0.8,0-1.6,0.3-2.1,0.9c-0.1,0.1-0.2,0.2-0.2,0.3
	c-0.2,0.3-0.4,0.7-0.5,1.1c-0.1,0.5,0,1,0.1,1.5c0.4,1.4,0.8,3,1.2,4.7c1.5,6.8,2.2,13.7,2,20.6c-0.1,3.3-0.7,6.5-1.6,9.7
	c-0.6,1.6-1.3,3.1-2.2,4.6c-0.7,1-1.5,1.9-2.4,2.6c-0.8,0.6-1.7,1.1-2.7,1.5c-1.4,0.5-2.8,0.9-4.3,1.1c-0.7,0.1-1.5,0.1-2.2,0
	c-0.4-0.1-0.7-0.2-1.1-0.3c-0.2-0.1-0.4-0.2-0.6-0.3c-0.2-0.1-0.3-0.3-0.5-0.4c-0.2-0.2-0.4-0.5-0.5-0.8c-0.2-0.5-0.4-1.1-0.6-1.7
	c-0.3-1.5-0.4-3-0.3-4.6c0.3-3.5,0.8-6.9,1.7-10.3c0.7-2.8,1.5-5.7,2.2-8.4l0.4-1.5c0.3-1.2,0.7-2.4,1-3.7c0.4-1.7,0.5-3.5,0.5-5.3
	c0-1.3-0.2-2.7-0.6-4c-0.3-1.3-0.8-2.5-1.5-3.7c-0.6-1.1-1.3-2.1-2.2-3c-0.8-0.8-1.6-1.6-2.5-2.3c-1-0.7-2.1-1.4-3.2-2
	c-1.3-0.6-2.6-1.2-3.9-1.6c-2.5-0.9-5-1.5-7.6-1.8c-5.6-0.8-11.2-1.1-16.8-0.9c-2.7,0.1-5.4,0.2-7.4,0.3c-2.4,0-4.7,0.4-7,1.1
	c-0.9,0.3-1.7,0.7-2.5,1.2c-0.7,0.5-1.4,1-1.9,1.7L105,8.7c-0.3,0.3-0.5,0.7-0.7,1.1c-0.2,0.4-0.3,0.8-0.4,1.2l-0.1,0.2
	c-0.2,0.8-0.3,1.7-0.2,2.5c0.1,1.2,0.2,2.3,0.5,3.4c0.3,1.3,0.7,2.4,1,3.5l0.4,1.1c0.7,2,1.4,4.1,1.8,6.2c0.3,1.6,0.5,3.1,0.5,4.7
	c-0.1,1.1-0.3,2.2-0.6,3.3c-0.6,1.5-1.3,2.8-2.2,4.1c-0.6,0.8-1.2,1.6-2,2.3c-0.2,0.1-0.4,0.2-0.6,0.4l-0.3-0.3
	c-0.4-0.5-0.8-1.1-1.1-1.7c-0.8-1.7-1.5-3.5-2-5.4c-0.6-1.9-1.1-3.9-1.7-6.6c-0.5-2.4-1-4.7-1.4-7.1l-0.6-3.2
	c-0.3-1.7-0.7-3.3-1.1-5c-0.2-1.1-0.5-2.2-0.9-3.3c-0.2-0.6-0.5-1.1-0.8-1.7c-0.5-0.9-1.1-1.7-1.8-2.4L90.6,6
	c-1.7-2-3.9-3.5-6.4-4.5c-1.2-0.5-2.5-0.9-3.8-1.1C79.1,0.2,77.6,0,76.2,0c-2.7,0-5.4,0.2-8.1,0.8c-3.7,0.8-7.4,1.7-11.1,2.8
	l-1.9,0.5c-1.6,0.5-3.1,0.9-4.7,1.3L48.3,6c-2.8,0.8-5.9,1.6-9.7,2.8l-5.9,1.8c-10.4,3.1-21.1,6.4-32.1,8.4c-0.1,0-0.2,0.1-0.3,0.1
	c0.9,2.2,1.6,4.4,2.3,6.7c0.6,2.1,1.1,4.1,1.5,6.2c0.3,1.1,0.6,2.1,0.8,3.2c1,4.9,1.4,10,1.1,15c-0.3,5.2-1,10.4-2.1,15.5
	c-0.5,2.3-1.1,4.8-1.8,7.6L2,73.9c-0.6,2.2-1.1,4.5-1.8,6.8C0.1,81,0,81.4,0,81.8c0,0.4,0.1,0.7,0.3,1c0.4,0.6,1.1,1,1.8,1
	c1.7-0.2,3.4-0.7,5-1.3c1.7-0.6,3.4-1.4,4.8-2c1.2-0.5,2.4-1.1,3.6-1.7c1.9-0.9,3.8-1.9,5.8-2.7c2.5-1,5-1.7,7.6-2.2
	c1.7-0.2,3.4-0.2,5.1,0c1.8,0.2,3.5,0.6,5.2,1.2c0.6,0.3,1.2,0.6,1.8,0.9c0.3,0.2,0.5,0.4,0.7,0.6c0.1,0.1,0.2,0.3,0.3,0.5
	s0.1,0.3,0.2,0.5c0,0.2,0,0.5,0,0.7c0,0.4-0.1,0.9-0.2,1.3c-0.4,0.9-0.8,1.8-1.4,2.7c-1.3,1.8-2.9,3.4-4.6,4.7
	c-2.1,1.7-4.5,3.1-7,4.2c-2.3,0.9-4.6,1.6-7,2.2c-2.6,0.7-5.4,1.3-8.6,2c-0.6,0.1-1.2,0.5-1.5,1c-0.1,0.1-0.2,0.2-0.2,0.3l-0.1,0.3
	l-0.1,0.4c-0.1,0.5,0,1,0.1,1.5c0.7,2.8,1.5,5.6,2.4,8.4c1,2.9,2.2,5.9,3.7,9.2c2.7,6.1,6,11.9,9.9,17.3c0.8,1,1.6,2,2.4,2.9
	l0.2,0.3l0.3,0.4c0.7,0.9,1.4,1.7,2.2,2.6c0.4,0.5,1,1,1.5,1.4l0.2,0.1c0.3,0.2,0.6,0.4,1,0.6c0.6,0.3,1.2,0.4,1.8,0.5
	c0.7,0.1,1.4,0,2-0.3c0.9-0.3,1.8-0.7,2.7-1.2c0.7-0.4,1.4-0.8,2.1-1.2l0.9-0.5l0.5-0.3c1.4-0.8,2.9-1.7,4.3-2.6
	c2.4-1.5,4.8-3.1,7.1-4.7c1.5-1,2.9-2,4.4-2.9c3.7-2.5,7.5-4.7,11.6-6.6c1.6-0.7,3.4-1.2,5.1-1.5c0.6,0,1.1,0,1.7,0
	c0.2,0,0.4,0.1,0.6,0.1l0.2,0.1l0.1,0.2l0,0c0.1,0.1,0.1,0.3,0.1,0.4c0,0.3,0.1,0.7,0.1,1c-0.1,0.8-0.2,1.6-0.5,2.4
	c-0.6,1.7-1.5,3.3-2.5,4.8c-1.9,2.6-4.1,4.9-6.6,6.9c-4.5,3.3-9.4,6-14.6,8l0.4-0.1c-4.2,1.7-8.6,3.2-12.9,4.7l-2.7,1
	c-0.6,0.2-1.2,0.6-1.6,1.1c-0.1,0.1-0.2,0.2-0.2,0.3c-0.4,0.7-0.4,1.5-0.1,2.2c1.6,3.4,3.7,6.6,6,9.6c3.1,3.9,6.3,7.6,9.8,11.1
	c3.6,3.7,7.4,7.1,11.4,10.3c2,1.6,4.1,3.1,6.3,4.6c1.8,1.2,3.7,2.3,5.7,3.3c1.9,0.9,3.8,1.7,5.9,2.2c1,0.2,2,0.4,3,0.5
	c0.8,0.1,1.6,0.1,2.4,0.1c0.9,0,1.8-0.2,2.6-0.4c0.5-0.1,0.9-0.3,1.4-0.5c0.8-0.3,1.5-0.6,2.2-1c0.9-0.5,1.8-1,2.6-1.7
	c1.6-1.2,3-2.6,4.2-4.3c0.8-1.2,1.6-2.5,2.2-3.8c0.9-2.1,1.7-4.3,2.2-6.6c0.9-4.4,1.5-8.8,1.8-13.2V164c0.2-2.6,0.4-5.3,0.7-7.9
	c0.3-2.3,0.7-4.6,1.4-6.8c0.4-1.2,0.9-2.3,1.6-3.3c0.8-1.1,1.8-2,3.1-2.6c0.8-0.3,1.6-0.5,2.5-0.7c0.5,0,0.9,0,1.4,0
	c0.2,0,0.4,0.1,0.6,0.2l0.4,0.2c0.1,0.1,0.3,0.2,0.4,0.4c0.2,0.3,0.4,0.5,0.5,0.8c0.3,0.6,0.5,1.3,0.7,2c0.3,2,0.4,4,0.3,5.9
	c-0.2,3.2-0.7,6.3-1.4,9.4c-0.7,3.4-1.6,6.7-2.7,10c-0.8,2.4-1.6,4.5-2.4,6.4c-0.6,1.5-1.3,2.9-2.1,4.2c-0.7,0.8-1.5,1.5-2.3,2.2
	l-0.1,0.1h-0.1l0,0c-1.5,1.2-3,2.3-4.6,3.5c-1.9,1.4-3.8,2.9-5.7,4.4c-1.5,1.2-2.9,2.4-4.2,3.8c-0.3,0.4-0.6,0.7-0.9,1.1
	c-0.2,0.3-0.4,0.6-0.6,0.9c-0.4,0.8-0.7,1.7-0.6,2.6c0,0.5,0.1,1,0.2,1.4v0.2c0.1,0.3,0.2,0.6,0.3,1c0.3,0.9,0.8,1.7,1.4,2.4
	c0.6,0.7,1.3,1.4,2.1,2c0.9,0.7,1.9,1.2,2.9,1.8c1,0.5,2.1,0.9,3.1,1.3c0.9,0.3,1.9,0.7,3.1,1c2.2,0.6,4.5,1.1,6.8,1.4
	c4.6,0.7,9.3,1.2,14,1.4c2,0.1,4.1,0.2,6.1,0.2c1.4,0,2.8,0.1,4.2,0.1c2.8,0.2,5.6,0.2,8.4,0c1.4-0.1,2.8-0.3,4.1-0.6
	c1.4-0.3,2.7-0.8,4-1.5c1.2-0.6,2.2-1.5,3.1-2.4c0.3-0.3,0.6-0.7,0.9-1.1c0.2-0.3,0.4-0.5,0.5-0.8c0.4-0.6,0.8-1.3,1.1-2
	c0.5-1.2,0.9-2.5,1.1-3.8c0.2-1.3,0.2-2.5,0.1-3.8c-0.2-1.7-0.5-3.4-0.9-5c-0.4-1.6-0.9-3.3-1.4-4.7c-0.2-0.7-0.4-1.3-0.7-2
	c-0.8-2.3-1.6-4.6-2.1-7c-0.3-1.4-0.4-2.9-0.5-4.3c0.1-0.7,0.2-1.5,0.4-2.2c0.2-0.6,0.5-1.3,0.9-1.8c0.9-1.2,1.8-2.3,3-3.3
	c0.3-0.2,0.6-0.4,1-0.6h0.2c0.2,0.3,0.4,0.7,0.6,1c0.6,1.4,1.1,3,1.4,4.5c0.7,3.6,1.1,7.3,1.2,11c0.2,3.6,0.2,7.2,0,10.8
	c0,0.9-0.1,1.8-0.2,2.7c0,0.4-0.1,0.8-0.1,1.1c-0.2,0.3-0.3,0.6-0.3,0.9c0,0.3,0,0.6,0,0.8s0.1,0.7,0.2,1.1c0.2,0.5,0.5,1,0.9,1.4
	c0.6,0.6,1.4,0.9,2.2,0.9c2.8-0.1,5.6-0.5,8.3-1.2c2.7-0.8,5.3-1.8,7.7-3.2c2.4-1.4,4.7-3,6.9-4.8c2-1.7,3.8-3.7,5.4-5.8
	c0.3-0.4,0.6-0.8,0.9-1.2c1.3-1.9,2.5-3.8,3.5-5.9c1.2-2.5,2.1-5.1,2.7-7.8c0.6-2.7,0.9-5.5,0.8-8.2c0-2-0.5-3.9-1.3-5.7
	c-1-2.3-2.3-4.5-3.8-6.5c-1.5-2.2-3.3-4.4-4.8-6.4l-0.5-0.7c-1.4-1.8-2.9-3.7-4.3-5.6c-1.3-1.7-2.4-3.5-3.5-5.4
	c-0.4-0.8-0.7-1.6-0.9-2.4c0-0.3-0.1-0.6-0.1-0.9c0-0.2,0-0.3,0.1-0.5c0-0.1,0-0.1,0.1-0.2c0.1,0,0.1-0.1,0.2-0.1
	c0.3-0.1,0.6-0.2,0.9-0.2c1.3-0.1,2.6-0.1,3.9,0.1c4.6,0.7,9.1,1.7,13.5,3.1l1.4,0.4c1.7,0.5,3.4,1,5.1,1.4c1.5,0.4,3.1,0.8,4.7,1
	c6,0.8,12.1,0.2,17.8-1.8c2.6-1,5-2.3,7.2-3.9c2.2-1.7,4.3-3.6,6-5.8c0.4-0.5,0.9-1.1,1.3-1.7C250.1,120.8,252.1,117,253.5,113
	 M2.9,25.4c0.3,0.7,0.6,1.5,0.9,2.2C3.5,26.8,3.2,26.1,2.9,25.4L2.9,25.4z"/>
<path class="st1" d="M197.9,188c1.3-1.9,2.5-3.8,3.5-5.9c1.2-2.5,2.1-5.1,2.7-7.8c0.6-2.7,0.9-5.5,0.8-8.2c0-2-0.5-3.9-1.3-5.7
	c-1-2.3-2.3-4.5-3.8-6.5c-1.6-2.3-3.5-4.7-4.8-6.3l-0.6-0.7c-1.4-1.7-2.9-3.7-4.3-5.6c-1.3-1.7-2.4-3.5-3.5-5.4
	c-0.4-0.8-0.7-1.6-0.9-2.4c0-0.2-0.1-0.4-0.1-0.6l-0.4-0.2l-0.3-0.1c-3.6-1.4-7.4-3.1-12-5.3c-4.6-2.2-8.6-4.1-12.5-6.1
	c-4.2-2.1-8.4-4.3-12.4-6.5c-12.1-6.6-24.7-14.3-38.7-23.3C97.1,83.4,85.1,75.1,71.8,66l-3.4-2.3c-10.6-7.2-22.6-15.5-34.2-23.1
	C21.9,32.5,10.9,25.7,0.5,19.7c0.8,2.4,1.5,4.3,2,6.1c0.6,2,1.1,4.2,1.5,6.2c0.3,1,0.6,2.1,0.8,3.2c1,4.9,1.4,10,1.1,15
	c-0.3,5.2-1,10.4-2.1,15.5c-0.5,2.2-1.1,4.8-1.8,7.6L2,73.9l-0.1,0.5l-0.1,0.4c-0.5,2-1,4-1.6,6C0,81.1-0.1,81.5,0,81.9
	c0,0.4,0.2,0.7,0.4,1c0.4,0.6,1.1,1,1.9,1c1.7-0.2,3.4-0.7,5-1.3c1.8-0.6,3.5-1.4,4.8-2c1.1-0.5,2.2-1,3.3-1.6l0.3-0.1
	c2-1,3.9-1.9,5.8-2.7c2.4-1,5-1.7,7.6-2.2c1.7-0.2,3.4-0.2,5.1,0c1.8,0.2,3.5,0.6,5.2,1.2c0.6,0.3,1.2,0.6,1.8,0.9
	c0.2,0.2,0.5,0.4,0.7,0.6c0.1,0.1,0.2,0.3,0.3,0.5c0.1,0.1,0.1,0.3,0.1,0.4c0,0.3,0.1,0.5,0.1,0.8c-0.1,0.4-0.1,0.9-0.2,1.3
	c-0.4,0.9-0.9,1.8-1.4,2.7c-1.3,1.8-2.8,3.3-4.5,4.7c-2.1,1.7-4.5,3.1-7,4.2c-2.3,0.9-4.6,1.6-7,2.2c-2.6,0.7-5.4,1.3-8.6,2
	c-0.6,0.1-1.2,0.5-1.6,1c-0.1,0.1-0.1,0.2-0.2,0.3l-0.1,0.3l-0.1,0.4c-0.1,0.5-0.1,1,0.1,1.5c0.7,2.8,1.5,5.6,2.4,8.4
	c1,2.9,2.2,6,3.8,9.2c2.7,6.1,6,11.9,9.9,17.3c0.8,1,1.6,2,2.3,2.9l0.3,0.3l0.3,0.4l0.3,0.3l0.3,0.3c0.5,0.6,1.1,1.3,1.6,1.9
	c0.4,0.5,1,1,1.5,1.5l0.2,0.1c0.3,0.2,0.6,0.4,1,0.6c0.6,0.3,1.2,0.4,1.8,0.5c0.7,0,1.4,0,2-0.3c0.9-0.3,1.8-0.7,2.7-1.2l1.8-1
	l0.4-0.2l0.9-0.5l0.5-0.3c1.4-0.8,2.9-1.7,4.3-2.6c2.3-1.5,4.7-3,6.6-4.3l0.4-0.2l0.2-0.1c1.5-1,2.9-2,4.4-2.9
	c3.7-2.5,7.6-4.7,11.7-6.5c1.6-0.7,3.4-1.2,5.1-1.5c0.6,0,1.1,0,1.7,0c0.2,0,0.4,0.1,0.6,0.1l0.2,0.1l0.1,0.1v0.2l0.1,0.2
	c0,0.3,0,0.6,0.1,0.9c-0.1,0.8-0.2,1.6-0.5,2.4c-0.6,1.7-1.5,3.3-2.5,4.8c-1.9,2.6-4.1,4.9-6.5,6.9c-4.5,3.3-9.4,6-14.6,8h0.4
	c-4.3,1.6-8.8,3.2-12.5,4.4l-0.3,0.1l-2.8,1c-0.6,0.2-1.2,0.6-1.6,1.1c-0.1,0.1-0.2,0.2-0.2,0.3c-0.4,0.7-0.4,1.5-0.1,2.3
	c1.6,3.4,3.6,6.6,6,9.6c6.2,8,13.3,15.3,21.2,21.6c2.1,1.6,4.2,3.2,6.3,4.6c1.8,1.2,3.8,2.3,5.7,3.3c1.9,0.9,3.9,1.7,5.9,2.2
	c1,0.3,2,0.4,3,0.5c0.8,0.1,1.6,0.1,2.4,0.1c0.9-0.1,1.8-0.2,2.6-0.4c0.5-0.2,0.9-0.3,1.4-0.5c0.8-0.3,1.5-0.6,2.2-1
	c0.9-0.5,1.8-1,2.6-1.7c1-0.8,1.9-1.6,2.8-2.5c0.6-0.6,1-1.2,1.4-1.8c0.8-1.2,1.6-2.5,2.2-3.8c0.9-2.1,1.7-4.3,2.2-6.6
	c0.9-4.3,1.5-8.6,1.7-13v-0.5v-0.3v-0.5c0.2-2.2,0.4-4.7,0.7-7.1c0.2-2.4,0.7-4.7,1.4-7c0.4-1.2,0.9-2.3,1.6-3.3
	c0.4-0.6,0.9-1.1,1.4-1.6c0.5-0.4,1.1-0.7,1.6-1c0.8-0.3,1.6-0.5,2.5-0.7c0.5,0,0.9,0,1.4,0l0.6,0.2l0.1,0.1c0.1,0,0.2,0.1,0.2,0.1
	c0.1,0.1,0.3,0.2,0.4,0.4c0.2,0.2,0.4,0.5,0.5,0.8c0.3,0.6,0.5,1.3,0.6,2c0.3,2,0.5,3.9,0.4,5.9c-0.2,3.2-0.7,6.3-1.4,9.4
	c-0.7,3.4-1.6,6.7-2.7,10c-0.8,2.3-1.6,4.4-2.4,6.3c-0.6,1.5-1.3,2.9-2.1,4.2c-0.7,0.8-1.4,1.5-2.2,2.1l-0.2,0.2
	c-1.5,1.2-3,2.3-4.5,3.4l-0.1,0.1c-1.8,1.3-3.8,2.9-5.7,4.4c-1.5,1.2-2.9,2.4-4.2,3.8c-0.3,0.3-0.6,0.7-0.9,1.1
	c-0.2,0.3-0.4,0.6-0.6,0.9c-0.5,0.8-0.7,1.7-0.6,2.6c0,0.5,0.1,1,0.2,1.4l0.1,0.2c0.1,0.3,0.2,0.6,0.3,1c0.3,0.9,0.8,1.7,1.5,2.4
	c0.6,0.7,1.3,1.4,2.1,2c0.9,0.7,1.9,1.3,2.9,1.8c1,0.5,2.1,0.9,3.1,1.3c1,0.4,2.1,0.7,3.1,1c2.2,0.6,4.5,1.1,6.8,1.4
	c4.6,0.7,9.3,1.2,14,1.4c1.9,0.1,3.9,0.2,5.8,0.2h0.7c1.3,0,2.5,0.1,3.8,0.1c2.8,0.2,5.6,0.2,8.4,0c1.4-0.1,2.8-0.3,4.1-0.6
	c1.4-0.3,2.7-0.9,4-1.5c1.2-0.6,2.2-1.5,3.1-2.4c0.3-0.3,0.6-0.7,0.9-1.1c0.2-0.2,0.4-0.5,0.5-0.8c1.1-1.8,1.8-3.7,2.1-5.8
	c0.2-1.3,0.2-2.5,0.1-3.8c-0.2-1.7-0.5-3.4-0.9-5c-0.4-1.6-0.9-3.2-1.4-4.7l-0.7-2c-0.8-2.3-1.5-4.6-2.1-7c-0.3-1.4-0.4-2.8-0.5-4.3
	c0.1-0.7,0.2-1.5,0.4-2.2c0.2-0.6,0.6-1.2,0.9-1.8c0.8-1.2,1.8-2.3,2.9-3.3c0.3-0.2,0.7-0.4,1-0.6c0.3,0.3,0.5,0.6,0.7,1
	c0.6,1.4,1.1,2.9,1.4,4.5c0.7,3.6,1.1,7.3,1.2,11c0.2,3.6,0.2,7.2,0,10.8c0,0.9-0.1,1.8-0.2,2.7c0,0.4-0.1,0.8-0.1,1.1
	c-0.2,0.3-0.3,0.6-0.3,0.9c0,0.3,0,0.6,0,0.8s0.1,0.7,0.2,1.1c0.2,0.5,0.5,1,0.9,1.4c0.6,0.6,1.5,0.9,2.3,0.9
	c2.8-0.1,5.6-0.5,8.3-1.3c2.7-0.8,5.3-1.8,7.7-3.2c2.4-1.4,4.7-3,6.8-4.8c2-1.7,3.9-3.7,5.5-5.8C197.3,188.8,197.6,188.4,197.9,188"
	/>
<path class="st2" d="M242,153c0-0.5-0.1-1-0.5-1.4l-0.4-0.4c-0.3-0.2-0.6-0.4-1-0.4l-4.7-1.3l0.5,0.1c-3.9-1.1-7.7-2.3-11.6-3.6
	s-7.7-2.7-11.5-4.2c-1.8-0.7-3.7-1.4-5.5-2.2c-2-0.8-3.9-1.7-5.9-2.5c-3.8-1.6-7.6-3.2-11.3-4.9c-15.1-6.8-30-14.2-44.7-22.1
	c-5.2-2.8-10.5-5.8-15.6-8.8l0.6,0.4l-1-0.6c-7.6-4.4-15.1-8.9-22.5-13.6c-7.4-4.7-14.8-9.4-22.2-14.1c-3.7-2.4-7.4-4.8-11.1-7.2
	s-7.4-4.8-11.1-7.3c-7.4-4.8-14.7-9.7-22.1-14.5c-5.9-3.8-11.9-7.6-17.8-11.4c-6.1-3.9-12.2-7.6-18.4-11.4c-0.2-0.1-0.4-0.1-0.5,0
	c-0.1,0.2-0.1,0.4,0.1,0.5c3.7,2.3,7.5,4.7,11.2,7.1s7.4,4.8,11,7.2c7.3,4.9,14.5,10,21.7,15s14.4,10.1,21.5,15.2
	s14.3,10.1,21.6,15.1s14.5,9.8,21.9,14.6s14.8,9.4,22.4,13.8c3.9,2.2,7.8,4.5,11.7,6.6c3.7,2,7.4,4,11.2,5.9
	c7.3,3.8,14.6,7.5,22.1,10.9c4.8,2.2,9.6,4.3,14.5,6.3c2.4,1,4.9,2,7.3,2.9s4.9,1.8,7.4,2.7c4.9,1.7,9.9,3.3,14.9,4.8
	s10.3,3,15.5,4.2c0.7,0.1,1.4-0.1,1.8-0.7C241.9,153.6,242,153.3,242,153"/>
<path class="st2" d="M56,55.5c-0.1-0.8-0.8-1.4-1.6-1.4c-2.1,0.1-4.3,0.3-6.4,0.7c-2,0.4-4,0.9-6,1.5c-3.9,1.3-7.8,2.8-11.5,4.6
	c-0.9,0.4-1.8,0.9-2.6,1.3s-1.9,1-2.8,1.5c-1.8,1-3.6,2-5.3,3s-3.5,2-5.2,3s-3.4,2-5.2,3.1L9,73.1c-0.4,0.2,0,0.9,0.4,0.6
	c2.6-1.5,5.2-2.9,7.9-4.2c2.6-1.3,5.3-2.7,8-3.8c2.3-1,4.7-2,7.1-2.8s5-1.7,7.5-2.5s4.9-1.4,7.4-1.9s5.2-1.1,7.8-1.5
	c0.2-0.1,0.4-0.2,0.6-0.4l0.1-0.1C55.9,56.2,56,55.9,56,55.5"/>
<path class="st2" d="M86.8,74.8c-0.1-0.4-0.4-0.7-0.8-0.9c-0.4-0.2-0.8-0.3-1.2-0.2c-3.6,1.5-7.1,3.3-10.4,5.5
	c-3.2,2.1-6.4,4.3-9.5,6.5c-6.2,4.5-12.6,8.7-19.2,12.6c-2.2,1.2-4.5,2.4-6.9,3.5l0,0h-0.1h0.1c-4.5,2-9.3,3.4-14.1,4.2
	c-0.2,0-0.3,0.2-0.3,0.4c0,0,0,0,0,0.1c0.1,0.2,0.3,0.3,0.5,0.3c2-0.3,4-0.7,6-1.2s3.8-1.1,5.7-1.7c3.6-1.3,7.2-2.8,10.6-4.6
	c6.9-3.5,13.3-7.8,19.8-11.8c3.1-2,6.3-3.9,9.5-5.7s6.6-3.5,9.8-5.2c0.2-0.1,0.3-0.2,0.4-0.3C86.9,75.7,87,75.2,86.8,74.8
	 M38.7,101.8L38.7,101.8L38.7,101.8L38.7,101.8"/>
<path class="st2" d="M107.1,89.4c0.1-0.3,0.1-0.7,0-1c-0.3-0.7-1-1.1-1.7-0.9c-4.1,1.4-8,3.4-11.6,5.7c-1.8,1.1-3.6,2.3-5.4,3.5
	s-3.5,2.4-5.3,3.6c-3.5,2.5-7,4.9-10.5,7.3c-3.5,2.4-7.2,4.6-11,6.6c-0.7,0.4-1.4,0.7-2.1,1c-0.3,0.2-0.3,0.5-0.2,0.8c0,0,0,0,0,0
	c0.2,0.3,0.6,0.4,0.9,0.2c3.8-1.9,7.6-4,11.2-6.3c3.6-2.2,7.2-4.6,10.8-6.9c1.8-1.2,3.6-2.3,5.4-3.4s3.7-2.2,5.5-3.2
	c3.7-2.1,7.7-3.9,11.6-5.7l1.9-0.9c0.1-0.1,0.3-0.2,0.4-0.3C107,89.4,107,89.4,107.1,89.4"/>
<path class="st2" d="M129.1,102.4c-0.2-0.3-0.5-0.5-0.9-0.6c-0.4-0.1-0.8,0-1.1,0.1c-1.8,1-3.5,2-5.2,3.2c-1.7,1.2-3.3,2.5-4.9,3.8
	c-3,2.6-5.9,5.4-8.6,8.3c-2.7,2.9-5.3,6-7.9,9.1c-2.6,3.1-5.1,6.2-7.8,9.3c-4.9,5.9-10.2,11.3-16.1,16.2h0.1
	c-4.9,4-10.3,7.4-16.1,9.9l0.1-0.1c-0.4,0.2-0.8,0.3-1.2,0.5c-0.3,0.1-0.4,0.4-0.3,0.7c0,0,0,0,0,0c0.1,0.3,0.4,0.5,0.7,0.4
	c3.9-1.6,7.6-3.5,11.1-5.8c3.4-2.2,6.6-4.6,9.6-7.3c5.9-5.4,11.5-11.2,16.7-17.4c1.6-1.8,3.2-3.6,4.8-5.4c1.6-1.8,3.2-3.5,4.9-5.3
	s3.4-3.4,5.1-5.1s3.5-3.3,5.4-4.8l-0.2,0.1c1.7-1.4,3.5-2.7,5.3-4c1.9-1.4,3.9-2.6,5.9-3.9c0.1-0.1,0.3-0.2,0.4-0.3
	C129.5,103.4,129.5,102.8,129.1,102.4 M76.7,151.8L76.7,151.8L76.7,151.8"/>
<path class="st2" d="M140.5,108.4c0.1-0.4,0-0.8-0.2-1.1c-0.4-0.6-1.3-0.9-2-0.5c-1.4,0.8-2.8,1.8-4.1,2.8c-1.3,1.1-2.6,2.2-3.8,3.3
	c-2.5,2.4-4.8,4.8-7.1,7.4c-1.1,1.3-2.2,2.6-3.2,3.8s-2.1,2.6-3.1,3.9c-2.1,2.7-4.2,5.3-6.3,8c-0.2,0.2-0.1,0.5,0.1,0.7
	c0.2,0.2,0.5,0.2,0.7,0c3.1-3.8,6.2-7.5,9.5-11.2c3.2-3.7,6.8-7.1,10.5-10.3l-0.1,0.1c1.4-1.1,2.8-2.2,4.2-3.2s3-2.1,4.6-3.1
	c0.1-0.1,0.3-0.2,0.4-0.4C140.4,108.6,140.4,108.5,140.5,108.4 M131.3,115.3l0.1-0.1L131.3,115.3z"/>
<path class="st2" d="M128.5,181.5c4-6.6,6.8-13.8,9.6-21c2-5.2,3.9-10.3,6.2-15.3c1.1-2.5,2.3-5,3.7-7.4s2.7-4.5,4.1-6.7l-0.1,0.1
	l0.1-0.2l0.1-0.2l-0.1,0.1c1-1.4,2-2.7,3.1-4c0.6-0.7,1.2-1.4,1.8-2.1l0.9-1c0.4-0.4,0.7-0.8,1.1-1.2c0.6-0.8,0.5-1.9-0.2-2.5
	c-0.3-0.4-0.8-0.6-1.3-0.6c-0.5,0-0.9,0.2-1.2,0.5h-0.1c-2.9,2.5-5.4,5.4-7.4,8.6c-2,3.2-3.7,6.5-5.1,9.9c-1.5,3.5-2.8,7-4.1,10.6
	s-2.5,7.5-3.8,11.2l0.1-0.3c-1.5,4.5-3.1,9-5,13.3c-1.8,4.4-4.1,8.5-6.7,12.5l0.1-0.1c-2.6,3.7-5.6,7.1-9.1,10l0,0l0,0l-0.1,0l0,0
	c-0.8,0.6-1.6,1.2-2.4,1.8c-0.2,0.1-0.3,0.4-0.1,0.6c0,0,0,0,0,0c0.1,0.2,0.4,0.3,0.6,0.2c3.2-2.2,6.2-4.8,8.8-7.7
	c1.3-1.4,2.4-2.9,3.6-4.5l0.3-0.4C126.7,184.3,127.6,182.9,128.5,181.5 M152.2,130.8l-0.1,0.1L152,131
	C152.1,130.9,152.1,130.9,152.2,130.8 M115,195.6L115,195.6L115,195.6L115,195.6"/>
<path class="st2" d="M175.5,192.7c-0.4-6.4-1.3-12.7-2.1-19.1c-0.4-3.5-0.8-6.9-1-10.4c-0.3-3.5-0.3-7-0.2-10.4
	c0.1-2,0.3-3.9,0.7-5.9c0.3-1.8,0.8-3.5,1.4-5.2c0.6-1.7,1.3-3.4,2.1-5c0.8-1.7,1.7-3.3,2.6-5l0.1-0.2c0.2-0.3,0.2-0.7,0.2-1.1
	c-0.1-0.6-0.3-1.1-0.8-1.5c-0.4-0.4-1-0.6-1.6-0.6c-0.6,0-1.1,0.2-1.5,0.6c-0.2,0.3-0.5,0.6-0.8,0.9s-0.5,0.6-0.7,0.9
	c-0.6,0.8-1.1,1.6-1.5,2.5c-0.8,1.6-1.3,3.3-1.7,5c-0.4,1.6-0.7,3.3-0.8,5c-0.2,1.8-0.2,3.6-0.3,5.4c0,3.6,0.1,7.2,0.5,10.8
	c0.4,3.7,0.9,7.4,1.5,11.1c0.6,3.9,1.2,7.8,1.9,11.7c0.6,3.5,1,7,1.3,10.5c0,0.2,0.2,0.4,0.4,0.4c0.1,0,0.2-0.1,0.3-0.1
	C175.5,192.8,175.5,192.8,175.5,192.7 M174.3,141.6l0.1-0.5L174.3,141.6"/>
<path class="st2" d="M249.6,93.4c-0.2-0.1-0.5-0.1-0.6,0.1c-0.2,0.3-0.5,0.7-0.8,1l0,0c-2.9,3.5-6.2,6.6-10,9.2
	c-5.2,3.4-10.9,6.1-16.9,8l0.2-0.1c-1.5,0.5-3.1,1-4.6,1.4s-3.1,0.8-4.7,1.2c-3.1,0.8-6.3,1.5-9.5,2.3s-6.5,1.8-9.7,2.8
	c-3.1,1-6.2,2.3-9.1,3.8c-2.4,1.2-4.7,2.6-6.9,4.2c-0.2,0.2-0.4,0.5-0.5,0.8c-0.1,0.5,0,1,0.2,1.4c0.2,0.4,0.6,0.8,1.1,0.9
	c0.5,0.2,1,0.1,1.4-0.1c2.3-1.4,4.6-2.7,7-3.8s4.8-2.2,7.2-3.2s4.9-1.8,7.3-2.7s4.7-1.6,7.1-2.4l4.7-1.5h-0.1
	c6.1-1.9,12.1-4.1,17.9-6.8c2.9-1.4,5.7-3.1,8.3-5c2.8-2,5.3-4.3,7.6-6.8c1.2-1.3,2.4-2.7,3.5-4.1l0,0
	C249.9,93.7,249.8,93.5,249.6,93.4 M212.3,116.8l0.2-0.1L212.3,116.8"/>
<path class="st2" d="M229.4,47.8c-5.7,5.2-11.8,10-18.1,14.4c-3.3,2.4-6.7,4.7-10,7s-6.8,4.7-10.1,7.1c-1.7,1.2-3.3,2.4-5,3.7
	s-3.2,2.5-4.8,3.7c-3.1,2.5-6.1,5.2-9,8c-2.9,2.8-5.5,5.7-7.9,8.9c-2.3,3.1-4.3,6.4-6,9.8c-0.6,1.2-1.1,2.4-1.6,3.7
	c-0.2,0.6-0.4,1.2-0.6,1.8s-0.3,1.4-0.5,2c-0.2,1,0.4,2,1.4,2.3c0.5,0.2,1,0.1,1.4-0.1c0.4-0.2,0.7-0.6,0.9-1l0.1-0.2
	c0.6-1.3,1.1-2.6,1.7-3.9l-0.2,0.5c1.4-3.3,3.1-6.6,5-9.6c2-3.1,4.2-6.1,6.5-9c-0.1,0.1-0.2,0.2-0.3,0.3c2.5-3.1,5.2-6,8.1-8.7
	c1.5-1.4,3-2.8,4.5-4.1s3.1-2.7,4.6-4c3.1-2.6,6.4-5.1,9.7-7.6s6.5-4.8,9.8-7.3c7.4-5.3,14.5-11,21.2-17.1l0.1-0.1
	C230.4,48,229.7,47.4,229.4,47.8 M159.3,119.4c0,0,0-0.1,0-0.1C159.3,119.3,159.3,119.3,159.3,119.4"/>
<path class="st2" d="M177.4,66.6c-0.1-0.1-0.4-0.2-0.5,0c-2.8,3.3-5.9,6.4-9.1,9.3c-1.6,1.5-3.2,3-4.9,4.5s-3.3,3-5,4.5
	s-3.2,3-4.8,4.6s-3,3.2-4.5,4.8c-3,3.2-5.5,6.8-7.4,10.8c-0.5,1-0.9,2-1.2,3.1c-0.2,0.7,0.1,1.4,0.7,1.7c0.3,0.2,0.7,0.3,1.1,0.2
	c0.4-0.1,0.7-0.3,0.9-0.6c1.2-2.8,2.6-5.5,4.1-8.2c0.8-1.3,1.6-2.7,2.5-4s1.8-2.5,2.8-3.8c1.9-2.2,3.8-4.4,5.9-6.5
	c1-1.1,2.1-2.2,3.2-3.2s2.3-2.2,3.4-3.4c2.2-2.2,4.4-4.3,6.6-6.5s4.1-4.4,6-6.8l0,0C177.5,67,177.5,66.8,177.4,66.6 M152.2,93.5
	l-0.1,0.2L152.2,93.5"/>
<path class="st2" d="M128.7,102.4c0-0.1,0.1-0.3,0.1-0.4c0-0.3,0-0.6-0.1-0.9c0-0.1-0.1-0.3-0.1-0.4c-0.5-1.9-0.9-3.9-1.1-5.8
	c-0.2-2-0.3-4-0.3-6c0.1-3.9,0.7-7.7,1.8-11.4c2-6.2,4.5-12.2,7.6-18c1.5-3,3-5.9,4.4-8.9c0.7-1.5,1.4-3,2.1-4.5s1.3-3,1.9-4.5
	c1.2-3,2.1-6.1,2.9-9.2c0.7-3.2,1.1-6.6,1.1-9.9c0-0.2-0.2-0.4-0.4-0.4c-0.2,0-0.3,0.2-0.3,0.4c0,0,0,0,0,0c0,0.1,0,0.3,0,0.4
	c0,0,0-0.1,0-0.1c-0.1,4-0.7,7.9-1.8,11.7c-0.9,3.1-2.1,6.1-3.4,9.1c-1.4,3-2.9,5.9-4.5,8.8c-3.2,5.8-6.5,11.4-9.3,17.4
	c-1.1,2.4-2.1,4.9-2.9,7.4c-0.8,2.5-1.5,5.1-1.9,7.8c-0.4,2.7-0.6,5.5-0.5,8.3c0.2,3.1,0.7,6.1,1.6,9c0.4,0.9,1.3,1.4,2.2,1.1
	c0.3-0.1,0.6-0.3,0.8-0.6C128.6,102.6,128.7,102.5,128.7,102.4 M128.7,100.9v-0.1V100.9z"/>
<path class="st2" d="M105,86c-0.1-0.5-0.2-1.1-0.3-1.6s-0.2-1.1-0.2-1.6c-0.1-1.1-0.2-2.2-0.1-3.3c0-1.4,0.2-2.8,0.4-4.2
	c0.2-1.5,0.6-3,1-4.5c0,0.1-0.1,0.2-0.1,0.3c0.9-2.8,2-5.6,3.2-8.3c1.2-2.8,2.5-5.5,3.7-8.3c1.2-2.7,2.3-5.4,3.2-8.2
	c0.9-2.7,1.4-5.5,1.5-8.4c0-0.2-0.1-0.5-0.4-0.5c-0.2-0.1-0.4,0.1-0.5,0.3c0,0,0,0,0,0c-0.1,2.3-0.5,4.6-1.2,6.8c0,0,0-0.1,0-0.1
	c-0.9,3-2.1,6-3.6,8.8c-1.4,3-3,5.8-4.5,8.8c-1.5,2.8-2.8,5.8-3.9,8.8c-0.6,1.5-1.1,3-1.4,4.5c-0.3,1.5-0.6,3-0.6,4.5
	c0,1.1,0,2.3,0.2,3.4c0.1,0.5,0.2,1.1,0.3,1.6c0.1,0.6,0.4,1.2,0.6,1.8c0.2,0.6,0.8,1,1.4,1c0.4,0,0.7-0.2,0.9-0.4l0.1-0.1
	C105,86.6,105.1,86.3,105,86"/>
<path class="st2" d="M85.7,75.3c-0.5-1.3-1.1-2.5-1.6-3.8s-0.9-2.7-1.2-4c0,0.2,0.1,0.3,0.1,0.4c-0.6-2.4-1.1-4.9-1.3-7.5
	c-0.3-2.5-0.4-4.9-0.4-7.4c0-1.6,0.1-3.2,0.2-4.8s0.2-3.3,0.3-4.9c0.2-3.3,0.5-6.5,0.7-9.8c0.2-3.3,0.2-6.5,0.1-9.8
	c-0.2-3.3-0.6-6.6-1.4-9.8c-0.2-0.8-0.4-1.7-0.7-2.5c-0.1-0.3-0.4-0.4-0.7-0.3c-0.2,0.1-0.4,0.3-0.3,0.6c0,0,0,0,0,0
	c0.1,0.5,0.3,1,0.4,1.6v-0.1c0.5,2.1,0.9,4.2,1.1,6.3c0.2,2.1,0.3,4.2,0.2,6.3l0,0c-0.1,6.6-1.2,13-2.1,19.4
	c-0.4,3.2-0.7,6.4-0.8,9.6c-0.2,3.3,0,6.6,0.5,9.8c0.3,2,0.9,4,1.5,6c0.7,2.1,1.7,4.1,2.8,6c0.2,0.2,0.4,0.4,0.6,0.5
	c0.3,0.2,0.7,0.2,1.1,0.1c0.7-0.2,1.1-1,0.9-1.7C85.7,75.5,85.7,75.4,85.7,75.3 M81.3,53v-0.2C81.3,52.9,81.3,53,81.3,53"/>
<path class="st2" d="M56.8,56c0.1-0.3,0.1-0.6,0-0.9l-1.4-2.9c-0.5-1-1-2-1.4-3.1c-0.8-2-1.5-4-2-6c-0.6-2.2-1-4.5-1.4-6.8
	c-0.2-1.2-0.4-2.4-0.6-3.5s-0.4-2.5-0.6-3.8c-0.4-2.5-0.8-4.9-1.2-7.3c-0.5-2.4-1.1-4.7-1.9-7c-0.1-0.2-0.3-0.3-0.5-0.2
	c-0.2,0.1-0.3,0.3-0.2,0.4c0,0,0,0,0,0c0.2,0.7,0.4,1.4,0.6,2.2l0,0v0.1c0.8,3.2,1.2,6.4,1.4,9.6c0.1,1.7,0.2,3.4,0.2,5
	s0.2,3.4,0.3,5s0.3,3.3,0.6,5c0.3,1.7,0.6,3.4,1.1,5.1c0.5,1.6,1.1,3.2,1.8,4.7c0.4,0.8,0.8,1.7,1.4,2.4c0.5,0.8,1,1.5,1.6,2.1
	c0.1,0.2,0.3,0.3,0.5,0.4c0.3,0.1,0.6,0.2,0.9,0.1c0.2-0.1,0.4-0.2,0.6-0.4C56.7,56.2,56.8,56.1,56.8,56 M46.2,17.1L46.2,17.1
	C46.2,17,46.2,17.1,46.2,17.1"/>
</svg>
