<?xml version="1.0" encoding="utf-8"?>
<!-- Generator: Adobe Illustrator 25.0.1, SVG Export Plug-In . SVG Version: 6.00 Build 0)  -->
<svg version="1.1" id="Layer_1" xmlns="http://www.w3.org/2000/svg" xmlns:xlink="http://www.w3.org/1999/xlink" x="0px" y="0px"
	 viewBox="0 0 332.2 258.4" style="enable-background:new 0 0 332.2 258.4;" xml:space="preserve">
<style type="text/css">
	.st0{fill:#DBA89E;}
	.st1{fill:#F7BEAD;}
</style>
<path class="st0" d="M12.5,28.2l2,0l0.6,0c1.5,0,3,0,4.5,0c2,0,4.2,0.1,7,0.3c4.4,0.2,9,0.7,13.5,1.3c8.6,1.2,17.1,3,25.4,5.6
	c15.2,4.7,30.3,11.8,46.1,21.7c12.7,8,25.5,17.4,41.5,30.7c7.5,6.2,15,12.7,22.2,19l1,0.9l1.3,1.2l4.5,3.9
	c-4.1-4.9-7.9-10-11.4-15.3c-2.7-4-5.5-8.5-8.9-14c-2.9-4.7-5.7-9.6-8.3-14.4c-1.7-3-3.3-6-5-9.1c-8.9-16.2-18.1-32.8-29-47.9
	c-1.8-2.5-3.6-4.9-5.3-7l-0.5-0.7c-0.5-0.7-1.1-1.4-1.6-2.1c-0.4-0.6-0.3-1.3,0.2-1.8c0.1-0.2,0.3-0.3,0.5-0.3
	c0.6-0.2,1.2-0.1,1.7,0.3c3.8,3.6,7.7,6.9,10.4,9c3.6,2.9,7.1,5.6,10.9,8.4c4,3,8.1,5.9,12.2,8.9c10.6,7.6,21.7,15.6,31.7,24.4
	c6.7,5.8,12.9,12.3,18.3,19.4c5.4,7,9.7,14.9,12.8,23.2c1,2.8,1.9,5.7,2.6,8.6c0.3-1.8,0.8-3.7,1.4-5.4c1.7-4.5,3.6-9,5.9-13.2
	l0.9-1.7c0.8-1.6,1.7-3.2,2.5-4.8c1.3-2.5,2.3-4.8,3.3-6.9c2-4.4,3.9-9,5.6-13.8c0.6-1.6,1.1-3.1,1.6-4.7l0,0.3
	c2.2-6.9,4-13.9,5.5-20.9c0.7-3.4,1.3-6.9,1.9-10.9c0.3-1.8,0.5-3.6,0.7-5.4l0.2-2.3c0.1-1.1,0.2-2.3,0.4-3.4c0.1-0.5,0.4-0.9,0.8-1
	c0.7-0.3,1.5,0,1.9,0.7c0,0,0,0.1,0,0.1c0.9,3.3,2,6.5,3,9.6l0.3,0.8l1.2,3.6l1.1,3.5l1.2,3.5c2.2,6.8,4.6,14.1,6.6,21.6
	c3.2,11.7,6.6,27.2,5.3,43c-0.6,7-2.2,13.8-4.9,20.2c-3,6.9-7.1,13.2-12.3,18.6c-0.9,1-1.9,2-2.9,2.9l0.9-0.4l1-0.5
	c3-1.3,6-2.6,8.8-3.6c4.6-1.8,9.3-3.2,14.2-4.2c5-1,10.1-1.3,15.2-0.9c2.7,0.2,5.4,0.6,8,1.2c2.4,0.4,5,1,8,1.7
	c4.7,1.2,9.3,2.5,14.1,3.9l0.5,0.1l0.7,0.2l1,0.3l2,0.6c1.5,0.5,3.1,0.9,4.7,1.3c2.3,0.7,4.9,1.4,7.5,2c0.6,0.1,1,0.6,1.1,1.2
	c0,0.6-0.2,1.1-0.7,1.3c-1.5,0.4-3,0.7-4.4,1l-0.3,0.1c-1.2,0.2-2.5,0.4-3.9,0.7l-0.4,0.1l-0.3,0.1l-0.7,0.1l-0.4,0.1
	c-2.6,0.5-5.3,0.9-8,1.5l0.3-0.2c-2.7,0.7-5.3,1.6-7.9,2.6l-1.2,0.5l-1.6,0.7l-1,0.4l-2.5,1.1l-1.8,0.8c-5.9,2.6-11.4,4.8-16.8,6.8
	c-8.4,3.2-18.5,6.7-29,8c-2.1,0.3-4.3,0.4-6.4,0.5c0,0,0,0,0,0c-4-2.8-8.6-5.9-14.4-9.5l0.7-0.6l0.3-0.2l0.2-0.1l0.6-0.4
	c1.3-0.9,2.6-1.7,4.1-2.6c2-1.1,4.1-2.2,6.2-3.1l1.4-0.6c2.9-1.2,5.9-2.2,8.9-3c3.5-0.9,5.9-1.4,8.1-1.9c3.2-0.5,6-1,8.5-1.4
	l1.1-0.2c1.9-0.3,3.8-0.5,5.7-0.7c1.8-0.2,3.9-0.4,6.8-0.6c4.9-0.3,9.1-0.5,13.3-0.6c2.2,0,4.3-0.1,6.5-0.1c4.9-0.1,11-0.1,16.7-0.4
	c0.3-0.1,0.4-0.3,0.3-0.6c0,0,0,0,0-0.1c-0.1-0.2-0.3-0.3-0.4-0.3c-2.4,0.1-4.8,0.2-7.1,0.2c-3,0-6,0-9-0.1l-1.3,0
	c-2.9,0-5.8-0.1-8.6-0.2c-3.5-0.1-7-0.2-10.5-0.3l-1.9,0l-0.6,0l-0.6,0c-0.8,0-1.6,0-2.4,0l-0.5,0l-1.1,0l-0.8,0l-2.5,0
	c-9-0.1-17.9,0.8-26.7,2.8c-3.3,0.7-6.6,1.8-9.7,3.1c-0.7,0.3-1.5,0.7-2.2,1.1c-1.6,0.8-3.1,1.8-4.6,2.8c0.3-0.8,0.5-1.6,0.8-2.4
	l0.3-0.8l0.1-0.4l0.3-0.9l0.1-0.3l0.2-0.4l0.2-0.4l0.2-0.4l0.2-0.5l0.2-0.5l0.2-0.4l0.1-0.5l0.2-0.5l0.2-0.5l0.2-0.5l0.2-0.5
	l0.5-1.1l0.2-0.5l0.1-0.3l0.2-0.4l0.2-0.2l0.3-0.6l0.2-0.5l0.2-0.2l0.1-0.3l0.2-0.4l0.2-0.5c0.8-1.5,1.6-3.1,2.4-4.6l0.4-0.8
	c1-2,2.1-4,3.1-6.1c2-4,3.8-8.1,5.3-12.3c3-8.4,4.8-17.2,5.5-26.1c0.4-4.8,0.5-9.5,0.3-14.3c-0.1-4.7-0.5-9.6-1-14.3
	c-1.2-10.2-3-19.9-4.9-28.9l-0.2-0.2c-0.1-0.1-0.3-0.1-0.4,0c-0.2,0.1-0.3,0.3-0.2,0.5c2.2,10.7,3.6,21.5,4.3,32.3
	c0.2,2.7,0.2,5.4,0.2,8.2c0,3.2-0.1,5.8-0.2,8.3c-0.4,5.4-1.1,10.7-2.2,16c-1.6,7.6-4,15-7.3,22.1c-2.1,4.1-4.5,8.2-6.9,12.4
	c-1.5,2.5-2.9,4.9-4.3,7.4c-1,1.9-2,3.7-2.9,5.7c-0.8,1.7-1.5,3.4-2.1,5.1l0,0l-0.1-0.6l-0.2-0.7c-0.1-0.6-0.2-1.2-0.4-1.8
	c-1.1-4.9-2.5-9.6-4.4-14.3c-0.5-1.3-1.1-2.7-1.7-4c-3.4-7.6-7.5-14.8-12.3-21.5c-3-4.3-5.9-8.1-8.9-11.6c-3.4-4.1-6.9-7.9-9.9-11.2
	c-6-6.6-12.7-13.4-21-21.5l-5.5-5.4c-5.2-5-10.5-10.2-15.6-15.3c-3.2-3.2-6.3-6.5-9.3-9.7l-0.5-0.5c-3.2-3.5-6.2-6.9-8.8-10.3
	c-0.1-0.2-0.3-0.2-0.5-0.1c-0.2,0.1-0.4,0.4-0.3,0.6c0,0,0,0.1,0.1,0.1c2.5,3.2,4.9,6.2,7.6,9.6l0.2,0.2c2.8,3.5,5.9,6.9,8.3,9.6
	l0.2,0.2c3,3.3,6,6.6,9.1,9.8l3.9,4.2c1.8,1.9,3.6,3.8,5.4,5.8l2.8,3l0.5,0.6l0.4,0.5c5.5,5.9,11.1,12,16.5,18.2
	c6.3,7.3,12.1,15,17.5,23c1.4,2.1,3,4.6,4.9,7.9c1.6,2.7,3,5.2,4.3,7.8c1.1,2.1,2.2,4.4,3.2,6.7c1.4,3.3,2.7,6.5,3.8,9.7
	c1.2,3.6,2.2,7.4,3,11.3c0.4,1.8,0.7,3.6,1.1,5.4l-1.9-1.1l-4.4-2.4c-2.6-1.4-5.1-2.8-7.6-4.1c-3.7-1.9-7.3-4-10.9-6.1
	c-3.6-2-7.3-4.1-10.9-6.2c-7.8-4.6-14.6-8.9-20.8-13.1c-11.4-7.9-22.3-16.8-31.9-24.7l-0.8-0.7c-6.7-5.5-14.4-11.7-21.9-17.3
	c-6.5-5-13.2-9.6-20.2-13.9c-6.7-4-13.6-7.5-20.8-10.6c-14.6-6.3-29.8-10.9-43.9-14.9L21.9,33c-0.2,0.1-0.2,0.3-0.2,0.6
	c0.1,0.1,0.2,0.2,0.3,0.3c9.2,2.6,17.3,5.1,24.6,7.7c8,2.8,15.9,6,23.5,9.7c7.7,3.8,15.1,8.1,22.2,12.9
	c12.8,8.9,25.1,19.4,35.9,28.6l0.2,0.2l0.4,0.3c8.2,7.1,17.6,15.1,27,22.3c3.9,2.9,7,5.2,10.1,7.4c3.1,2.2,6.2,4.1,9.3,6.2l1.3,0.8
	c3.4,2.3,7,4.6,10.6,6.8l6.1,3.7l4.6,2.9c1.4,0.9,2.8,1.7,4.2,2.6l0.7,0.4l1.5,0.9l-0.5-0.1l-0.6,0c-11.4-1.1-22.6,0.1-31.1,1.3
	c-4.6,0.6-9,1.3-14.8,2.3c-4.2,0.7-8.8,1.3-14.6,1.9c-21.6,2.4-42.7,4.5-64,3.8c-16.6-0.6-31-2.9-44.3-7C29.1,148,24,146,19,143.7
	c-0.1-0.1-0.2-0.1-0.4,0c-0.1,0.1-0.3,0.2-0.2,0.6c0.1,0.1,0.1,0.2,0.2,0.2c8.4,3.9,17.1,7,26,9.3c8.9,2.2,18,3.7,27.1,4.5
	c22.1,2.1,44.9,1.1,64.5,0l1.7-0.1l0.5,0l1.8-0.1l0.5,0c3.6-0.2,7.1-0.4,10.7-0.7c4.9-0.4,9.8-0.8,14.7-1.2
	c10.7-1,20.4-1.7,30.2-1.4c3.5,0.1,7.1,0.5,10.6,1c1.5,0.2,2.9,0.5,4.3,0.8l-0.7,0.4c-0.9,0.6-1.6,1-2.3,1.5l-1.3,0.9
	c-4.2,3.2-8.1,6.8-11.6,10.8c-1.1,1.2-2.2,2.5-3.3,3.7l-1.6,1.8c-1.8,2-3.5,4-5.4,5.8c-3.1,3.3-6.7,6.9-11.3,11.6
	c-3,2.9-5.9,5.7-8.8,8.3c-1.5,1.3-3,2.7-4.6,4l-1.4,1.2l-0.4,0.4l-0.5,0.4c-0.8,0.7-1.5,1.3-2.3,1.9c-2.9,2.3-6.1,4.7-9.8,7.2
	s-7.1,4.6-10.4,6.5c-4.9,2.7-9.8,5.2-15,7.5l-2.1,0.9c-0.3,0.1-0.4,0.4-0.3,0.6c0,0,0,0,0,0.1c0.1,0.3,0.4,0.4,0.7,0.3c0,0,0,0,0,0
	c1-0.4,2-0.9,3-1.3c7.2-3.2,14.2-6.8,20.9-10.9c3.3-2,6.8-4.3,10.5-6.9l2.6-1.9l2.6-1.9c1.7-1.2,3.2-2.4,4.8-3.7
	c3.4-2.7,7.2-6,12.4-10.5c4.4-3.9,8.5-7.8,12.4-11.5c1.6-1.6,3.3-3.1,4.9-4.7l1-1l1.6-1.6c1.3-1.3,2.6-2.5,4-3.8
	c3.8-3.6,8.1-6.9,12.6-9.6c0.9-0.5,1.8-0.9,2.7-1.4c1.2-0.5,2.4-1,3.7-1.4c0.7-0.2,1.3-0.3,2-0.4l-0.1,0.4l-0.2,0.6l-0.1,0.4
	c-0.6,2.4-1,4.8-1.2,7.2c-0.2,2.1-0.3,4.2-0.4,6.8c0,1.3,0,2.6,0,3.9l0,0.6l0,0.5l0,1.7c0,1.9,0,3.8-0.2,5.7
	c-0.1,1.9-0.2,3.7-0.5,5.6c-0.7,4.6-1.9,9.3-2.8,12.9l-0.3,1.2l-0.7,2.4l-0.4,1.6l-0.4,1.4l-0.3,0.9l-0.2,0.8l-0.5,2l-0.9,3
	c-0.7,2.4-1.4,4.8-2,7.2l-1.3,4.8c-0.4,1.4-0.8,2.9-1.2,4.3c-0.8,2.9-1.5,5.9-2.2,8.9c-0.1,0.1,0,0.2,0.1,0.4
	c0.1,0.1,0.2,0.2,0.4,0.2c0.1,0,0.2,0,0.3,0c0.2-0.1,0.3-0.2,0.4-0.4c0.3-1.1,0.5-2.2,0.8-3.4c0.6-2.4,1.4-5,2.4-8.1
	c0.4-1.3,0.9-2.6,1.3-3.9l0.9-2.4l0.5-1.4c0.4-1.1,0.8-2.2,1.2-3.3l0.3-0.8l1.5-4.1l0.6-1.7c0.8-2.1,1.6-4.3,2.3-6.4
	c2.1-6.3,3.6-11.5,4.7-16.5c0.5-2.3,0.9-4.6,1.1-6.9l0.2-1.7l0.2-1.7l0.1-0.7c0.1-1,0.2-2,0.3-3c0.1-1,0.2-1.9,0.2-2.9
	c0.1-1.4,0.2-2.8,0.4-4.3c0.2-2.2,0.6-4.4,1.2-6.6c0.3-1.1,0.7-2.2,1.1-3.2l0.3,0.2c3.6,2.2,6.9,4.4,10.2,6.7l0,0
	c0.1,0.5,0.2,1,0.2,1.5c1.1,7.7,1,15.5-0.2,23.1c-0.4,2.4-0.9,4.8-1.6,7.5c-0.6,2.4-1.4,4.7-2.2,7c-1.8,4.4-3.9,8.6-6.5,12.6
	c-2.3,3.7-5,7.4-7.3,10.6c-3.8,5-7.2,10.2-10.3,15.7c-0.9,1.8-1.8,3.6-2.5,5.3c-0.7,1.7-1.3,3.4-1.9,5.6c-0.1,0.3-0.3,0.5-0.6,0.6
	c-0.2,0.1-0.3,0.1-0.5,0.1c-0.5,0-0.9-0.4-0.9-0.8c-0.1-0.6-0.3-1.2-0.5-1.8c-0.2-0.6-0.3-1-0.4-1.5c-0.3-1.2-0.6-2.5-0.8-3.8
	c-0.5-2.5-0.8-5-1-7.5c-0.5-5.2-0.5-10.4-0.2-15.6c0.3-5.2,0.8-10.4,1.7-15.5c0.7-4.6,1.8-9.2,3.1-13.7c0.8-2.5,1.7-5,2.6-7.4
	l0.1-0.3c1.7-4.5,3.1-9,4.2-13.7l0.2-1l0.1-0.4l0.3-1.5c-1.1,2.2-2.4,4.4-3.8,6.4c-2.7,4-5.7,7.8-8.9,11.4
	c-6.5,7.2-13.7,13.6-21.5,19.3c-3.9,2.9-8,5.5-12,8c-4.2,2.6-8.6,4.9-13.1,6.9c-10.6,4.6-21.9,7.3-32.6,9.6
	c-3.3,0.7-6.6,1.4-9.9,2.2c-1.7,0.4-3.3,0.7-5,1.2l-2,0.5l-0.3,0.1l-0.4,0.1l-0.4,0.1l-0.4,0.1l-0.3,0.1c-0.4,0.1-0.7,0.2-1.1,0.3
	c-0.9,0.2-1.7-0.3-1.9-1.2c-0.1-0.3,0-0.6,0.1-0.9c0.1-0.4,0.4-0.6,0.7-0.8c0.4-0.1,0.7-0.3,1-0.4c5.2-2.3,10.1-5.1,14.7-8.4
	c11.7-8.3,21.7-19.1,31.3-29.4l0.7-0.7c1.7-1.9,3.4-3.7,5.2-5.5c5.8-6.3,12-12.3,18.6-17.8c6.7-5.6,14.1-10.3,22-13.9
	c0.9-0.4,1.7-0.7,2.4-1l-1.4,0.4l-0.3,0.1c-1.7,0.4-3.3,0.8-4.9,1.2c-5.1,1.3-10.7,2.7-16.9,4.5c-3.8,1.1-7.6,2.2-11.3,3.3l-1,0.3
	c-7,2.1-14.2,4.2-21.3,6.1c-4.8,1.2-10.5,2.7-16.3,3.7c-4.7,0.8-9.4,1.3-14.1,1.6c-9,0.4-18-0.4-26.8-2.1
	c-15.5-3-31.6-9.4-49.3-19.5c-5-2.9-10.4-6.2-16.3-10.1c-2.5-1.7-5.2-3.5-7.9-5.3c-2.4-1.7-5.2-3.6-7.9-5.7
	c-0.6-0.4-0.8-1.1-0.6-1.7c0.1-0.4,0.4-0.7,0.8-0.9c0.3-0.1,0.7-0.2,1.1-0.1c2.6,0.7,5.5,1.2,8.9,1.9c8.6,1.5,17.2,2.4,25.9,2.7
	c8.5,0.2,17.1,0,25.6-0.8c9.1-0.8,18.8-2.1,30.3-4.1l2.6-0.5c1.8-0.3,3.5-0.6,5.3-0.9c2.5-0.4,5-0.7,7.9-1c4.8-0.4,9.9-0.6,15.5-0.6
	c10.6,0,21.6,1,30.5,1.7c3,0.3,5.8,0.5,8.5,0.7c-1.9-0.5-3.9-1.1-5.7-1.8c-8.7-3.1-17.2-6.9-25.2-11.5c-14.3-8-28.6-18.8-45.2-33.7
	c-12.6-11.3-25.8-22.1-39.2-32c-5.7-4.2-11.3-8.2-17.3-12.4c-3-2-6-4.1-9-6.1L19,35.8l-2.3-1.6l-1.2-0.8l-0.4-0.2
	C14,32.5,13,31.8,12,31c-0.3-0.1-0.5-0.4-0.7-0.6c-0.2-0.3-0.3-0.8-0.2-1.1c0.1-0.5,0.5-0.8,0.9-1C12.2,28.2,12.4,28.1,12.5,28.2"/>
<path class="st1" d="M21.8,33.1L21.8,33.1l0.3-0.1C36.2,37,51.4,41.6,66,48c7.1,3.1,14.1,6.6,20.8,10.6c7,4.3,13.7,8.9,20.2,13.8
	c7.5,5.6,15.1,11.8,21.9,17.3l0.8,0.7c9.6,7.8,20.6,16.7,31.9,24.7c6.2,4.2,13,8.5,20.8,13.1c3.6,2.1,7.2,4.2,10.9,6.2
	c3.6,2,7.3,4.1,10.9,6.1c2.5,1.3,5,2.7,7.5,4.1l4.4,2.4l1.9,1.1c-0.3-1.8-0.7-3.6-1.1-5.4c-0.9-3.9-1.9-7.7-3-11.3
	c-1-3.1-2.3-6.4-3.8-9.7c-1-2.2-2.1-4.5-3.2-6.7c-1.3-2.5-2.7-5.1-4.3-7.8c-1.9-3.2-3.5-5.8-4.9-7.9c-5.4-8-11.3-15.7-17.6-23
	c-5.3-6.2-11-12.3-16.5-18.2l-0.5-0.4l-0.5-0.6l-2.8-3c-1.8-1.9-3.6-3.9-5.4-5.8l-3.9-4.2c-3.1-3.2-6.1-6.5-9.1-9.8l-0.2-0.2
	c-2.5-2.7-5.5-6.1-8.4-9.6l-0.2-0.2c-2.7-3.3-5.2-6.4-7.7-9.5c-0.1-0.1-0.1-0.2-0.1-0.4c0-0.2,0.2-0.3,0.3-0.3
	c0.2-0.1,0.4,0,0.5,0.1c2.6,3.4,5.6,6.9,8.8,10.3l0.5,0.5c3.1,3.3,6.1,6.5,9.3,9.7c5.1,5.2,10.4,10.4,15.6,15.4l5.5,5.4
	c8.3,8.1,15,14.9,21,21.5c3,3.2,6.4,7,9.9,11.2c2.9,3.5,5.8,7.3,8.9,11.6c4.8,6.7,8.9,14,12.3,21.5c0.6,1.3,1.1,2.7,1.7,4
	c1.8,4.6,3.3,9.4,4.4,14.2c0.1,0.6,0.3,1.2,0.4,1.8l0.2,0.7l0.1,0.6c0.6-1.7,1.3-3.5,2.1-5.1c0.9-1.9,1.9-3.8,2.9-5.7
	c1.4-2.5,2.8-4.9,4.3-7.4c2.4-4.1,4.8-8.2,6.9-12.3c3.3-7,5.8-14.5,7.3-22.1c1-5.3,1.8-10.6,2.2-16c0.2-2.5,0.3-5.1,0.2-8.3
	c0-2.7-0.1-5.5-0.2-8.2c-0.7-10.9-2.1-21.7-4.3-32.3c0-0.2,0.1-0.4,0.2-0.5c0.1-0.1,0.3-0.1,0.4,0l0.2,0.2c1.9,9,3.7,18.7,4.9,28.9
	c0.5,4.8,0.8,9.6,1,14.3c0.1,4.8,0,9.6-0.3,14.3c-0.7,8.9-2.6,17.7-5.5,26.1c-1.5,4.2-3.3,8.3-5.3,12.3c-1,2-2,4.1-3.1,6.1l-0.4,0.8
	c-0.8,1.5-1.6,3-2.4,4.6l-0.2,0.5l-0.2,0.4l-0.1,0.3l-0.2,0.2l-0.2,0.5l-0.3,0.6l-0.2,0.2l-0.2,0.4l-0.1,0.3l-0.2,0.5l-0.5,1.1
	l-0.2,0.5l-0.2,0.5l-0.2,0.5l-0.2,0.5L232,140l-0.2,0.4l-0.2,0.5l-0.2,0.5l-0.2,0.4l-0.2,0.4l-0.2,0.4l-0.1,0.3l-0.3,0.9l-0.1,0.4
	l-0.2,0.8c-0.3,0.8-0.6,1.6-0.8,2.4c1.4-1.1,3-2,4.6-2.8c0.7-0.4,1.5-0.7,2.2-1.1c3.1-1.3,6.4-2.3,9.7-3.1c8.7-2,17.7-3,26.7-2.8
	l2.5,0l0.8,0l1.1,0l0.5,0c0.8,0,1.6,0,2.4,0l0.6,0l0.6,0l1.9,0c3.5,0.1,7,0.2,10.5,0.3c2.9,0.1,5.8,0.2,8.6,0.2l1.3,0
	c3,0.1,6,0.1,9,0.1c2.4,0,4.8,0,7.1-0.2c0.2,0,0.4,0.1,0.4,0.3c0.1,0.2,0,0.5-0.3,0.6c0,0,0,0-0.1,0c-5.7,0.3-11.8,0.4-16.7,0.4
	c-2.2,0-4.3,0-6.5,0.1c-4.2,0.1-8.4,0.2-13.3,0.6c-2.9,0.2-5,0.3-6.8,0.6c-1.8,0.2-3.8,0.5-5.7,0.7l-1.1,0.2
	c-2.6,0.4-5.4,0.8-8.5,1.4c-2.2,0.4-4.6,1-8.1,1.8c-3,0.8-6,1.8-8.9,3l-1.4,0.6c-2.1,0.9-4.2,2-6.2,3.1c-1.5,0.9-2.8,1.7-4.1,2.6
	l-0.6,0.4l-0.2,0.1l-0.3,0.2l-0.7,0.6c5.8,3.6,10.4,6.7,14.4,9.5c0.8,0.6,1.5,1,2.3,1.6c8.3,6.1,16,13,22.9,20.7
	c3.6,4,7,8.2,10.2,12.6c1.4,1.9,2.8,4,4.3,6.3c1.5,2.3,2.9,4.6,4.1,7.1c0.1,0.3,0.3,0.6,0.4,0.8c0.2,0.6,0.2,1.3,0.1,1.9
	c-0.2,1-0.8,1.8-1.6,2.4c-0.2,0.1-0.3,0.2-0.5,0.3c-0.7,0.3-1.5,0.4-2.3,0.2c-1-0.2-1.8-0.8-2.3-1.6c-0.9-1.3-1.8-2.6-2.6-4
	l-1.1-1.7c-1.3-2-2.6-4-4-5.9c-2.8-3.9-5.6-7.7-8.5-11.2c-7.7-9.1-16.6-17.3-26.3-24.2l-1-0.7l-1-0.7c-3.3-2.3-6.7-4.5-10.2-6.7
	l-0.3-0.2c-0.5,1-0.9,2.1-1.1,3.2c-0.5,2.2-0.9,4.4-1.2,6.6c-0.2,1.4-0.3,2.8-0.4,4.3c-0.1,1-0.1,1.9-0.2,2.9c-0.1,1-0.2,2-0.3,3
	l-0.1,0.7l-0.2,1.7l-0.2,1.7c-0.2,2.3-0.6,4.7-1.1,6.9c-1.1,5-2.6,10.2-4.7,16.5c-0.7,2.2-1.5,4.3-2.3,6.4l-0.6,1.7l-1.5,4l-0.3,0.8
	c-0.4,1.1-0.8,2.2-1.2,3.3l-0.6,1.4l-0.9,2.4c-0.5,1.3-0.9,2.6-1.3,3.9c-1,3.1-1.8,5.7-2.4,8.1c-0.3,1.1-0.6,2.2-0.8,3.4
	c0,0.2-0.2,0.4-0.4,0.4c-0.1,0-0.2,0.1-0.3,0.1c-0.2,0-0.3-0.1-0.4-0.3c-0.1-0.2-0.1-0.3-0.1-0.4c0.7-3,1.4-5.9,2.2-8.9
	c0.4-1.5,0.8-2.9,1.2-4.3c0.5-1.6,0.9-3.2,1.3-4.8c0.6-2.4,1.3-4.8,2.1-7.2l0.9-3l0.5-2l0.2-0.8l0.3-0.9l0.4-1.4l0.4-1.6l0.6-2.4
	l0.3-1.2c0.9-3.6,2-8.3,2.8-12.9c0.3-1.8,0.4-3.8,0.5-5.6c0.1-1.8,0.2-3.8,0.2-5.7l0-1.7l0-0.5l0-0.6c0-1.3,0-2.6,0-3.9
	c0.1-2.6,0.2-4.8,0.4-6.9c0.2-2.4,0.6-4.8,1.2-7.2l0.1-0.4l0.2-0.6l0.1-0.4c-0.7,0.1-1.4,0.2-2,0.4c-1.3,0.4-2.5,0.8-3.7,1.4
	c-0.9,0.4-1.8,0.9-2.7,1.3c-4.5,2.8-8.7,6-12.6,9.6c-1.4,1.2-2.7,2.5-4,3.8l-1.6,1.6l-0.9,0.9c-1.6,1.5-3.3,3.1-4.9,4.7
	c-3.9,3.7-8,7.6-12.4,11.5c-5.1,4.5-8.9,7.8-12.4,10.5c-1.6,1.3-3.2,2.5-4.8,3.7l-2.6,1.9l-2.6,1.9c-3.7,2.7-7.2,4.9-10.5,6.9
	c-6.7,4.1-13.7,7.7-20.9,10.9l-3,1.3c-0.3,0.1-0.6,0-0.7-0.3c0,0,0,0,0,0c-0.1-0.2,0-0.5,0.2-0.7c0,0,0,0,0.1,0l2.1-0.9
	c5.1-2.2,10.1-4.7,14.9-7.5c3.3-1.9,6.8-4.1,10.4-6.5s6.9-4.9,9.8-7.2c0.8-0.6,1.5-1.3,2.3-1.9l0.5-0.4l0.4-0.4l1.5-1.3
	c1.5-1.3,3.1-2.6,4.6-4c2.8-2.5,5.8-5.3,8.8-8.3c4.6-4.6,8.3-8.3,11.3-11.6c1.8-1.9,3.6-3.9,5.4-5.9l1.6-1.8
	c1.1-1.2,2.2-2.5,3.3-3.7c3.5-4,7.4-7.6,11.6-10.8c0.4-0.3,0.8-0.6,1.3-0.9c0.7-0.5,1.4-0.9,2.3-1.4l0.7-0.4
	c-1.4-0.3-2.9-0.5-4.3-0.8c-3.5-0.5-7-0.9-10.6-1c-9.8-0.3-19.5,0.5-30.2,1.4c-4.9,0.4-9.8,0.9-14.7,1.2c-3.6,0.3-7.1,0.5-10.7,0.7
	l-0.5,0l-1.8,0.1l-0.5,0l-1.7,0.1c-19.6,1.1-42.4,2.1-64.5,0c-9.1-0.8-18.2-2.4-27.1-4.6c-9-2.3-17.7-5.4-26-9.3
	c-0.1,0-0.2-0.1-0.2-0.2c0-0.4,0.1-0.6,0.2-0.6c0.1,0,0.2,0,0.4,0c4.9,2.3,10,4.2,15.2,5.9c13.2,4.1,27.7,6.4,44.3,7
	c21.3,0.7,42.4-1.4,63.9-3.8c5.8-0.7,10.5-1.3,14.6-1.9c5.7-0.9,10.2-1.6,14.8-2.3c8.5-1.2,19.7-2.4,31.1-1.3l0.6,0l0.5,0l-1.5-0.8
	l-0.7-0.4c-1.4-0.9-2.8-1.8-4.3-2.6l-4.6-2.8l-6.1-3.7c-3.6-2.2-7.1-4.5-10.6-6.8l-1.3-0.8c-3.1-2-6.2-4.1-9.3-6.2
	c-3-2.1-6.3-4.5-10.1-7.4c-9.5-7.2-18.8-15.2-27.1-22.2l-0.6-0.5c-10.8-9.3-23.1-19.7-35.9-28.6c-7.1-4.8-14.5-9.2-22.2-12.9
	c-7.6-3.7-15.5-6.9-23.5-9.7c-7.3-2.6-15.4-5.1-24.6-7.7c-0.1,0-0.3-0.1-0.3-0.3C21.6,33.4,21.6,33.2,21.8,33.1"/>
</svg>
