<?xml version="1.0" encoding="utf-8"?>
<!-- Generator: Adobe Illustrator 25.0.1, SVG Export Plug-In . SVG Version: 6.00 Build 0)  -->
<svg version="1.1" id="Layer_1" xmlns="http://www.w3.org/2000/svg" xmlns:xlink="http://www.w3.org/1999/xlink" x="0px" y="0px"
	 viewBox="0 0 310.6 302.3" style="enable-background:new 0 0 310.6 302.3;" xml:space="preserve">
<style type="text/css">
	.st0{fill:#DBA89E;}
</style>
<path class="st0" d="M310.6,76.4L310.6,76.4c-0.1-0.3-0.4-0.5-0.8-0.6c-4.5-0.3-9.1-0.2-13.6,0.1c-4.3,0.4-8.6,1-12.9,2
	c-8.3,1.9-16.3,4.7-24,8.3c-10.5,4.8-20.5,10.6-30.2,16.2l-0.2,0.1l-0.2,0.1l-3.7,2.2c3.3-2.4,6.4-5.1,9.2-7.9
	c3.3-3.2,6.4-6.6,9.4-10.1c2.9-3.4,5.6-7,8.1-10.7c1.4-2.1,2.6-3.9,3.7-5.7s2.1-3.7,3.4-6c2.2-4,4.1-7.8,6.5-12.8
	c0.4-0.8,0.8-1.6,1.2-2.4l0.6-1.1l0.4-0.8l0.1-0.2l0.2-0.3l0.1-0.3l0.5-1c1.1-2.2,2.1-4.3,3.3-6.5l0.1-0.2l1-2
	c0.3-0.6,0.7-1.2,1-1.8c0.9-2.2,1.8-4.3,2.7-6.2s1.7-3.6,2.5-5c-7.1,4-13.9,8.4-20.4,13.3c-6.2,4.7-12.1,9.7-17.7,15.1
	c-2.6,2.5-5.3,5.3-8,8.3c-2.6,2.8-5.1,5.8-7.5,8.7c-4.9,6.1-9.3,12.4-13.3,19.1c-1.9,3.1-3.8,6.6-5.9,10.6l-1.4,2.7
	c0.8-1.7,1.4-3.4,2.2-5.3l0.8-2c0.7-1.9,1.4-3.8,2.2-5.7l0.6-1.5c0.7-1.9,1.5-3.9,2.2-5.8c1.8-4.8,3.2-9.1,4.5-13
	c2.6-8.3,4.9-17.2,7-27.3c0.9-4.4,1.8-9,2.5-13l0.1-0.7c0.7-3.9,1.5-8.4,2.4-13.7c0.4-2.5,0.8-5,1.2-7.5l0.3-1.8l0.4-2.8
	c0-0.5,0-1,0-1.5c-1.7,2.2-3.4,4.4-5,6.6l-0.9,1.2l-0.4,0.5c-1.2,1.6-2.4,3.2-3.6,4.9c-1.2,1.9-2.4,3.8-3.5,5.7
	c-4.4,7.3-8.1,13.8-11.4,20.1c-3.6,6.8-6.7,13.9-9.4,21.1c-2.7,7.1-4.7,14.4-6,21.9c-1.2,6.7-1.6,13.5-1.1,20.3
	c0.3,4.3,0.9,8.5,1.8,12.7c0.4,1.6,0.8,3.2,1.4,4.8c-4.4,3.3-8.8,6.8-13.1,10.2l-0.5,0.4l-0.8,0.6c-4.6,3.6-9.1,7.2-13.6,10.6
	c-2.1,1.6-4.2,3.2-6.3,4.8l0.2-0.5c0.6-2,1.3-4,2-6.1c1.4-4,2.8-7.7,4.9-13c1-2.5,2-5,3-7.4l0.2-0.5l1.9-4.8
	c1.7-4.3,3.4-8.6,4.9-12.8c2.9-8.2,5.6-16.9,7.8-25.8c1-3.9,2-8.2,3-12.9c0.4-1.8,0.8-3.7,1.1-5.6l0.1-0.3l0.1-0.6
	c0.4-2.2,0.8-4.4,1.2-6.5c0.9-5,1.7-10.2,2.5-16.2c0.4-2.8,0.8-5.6,1.1-8.4l0.5-4.1l0.1-1.1l0.1-1.1v-0.5c0.1-0.6,0.1-1.1,0.2-1.7
	c-1.9,4.5-3.9,8.8-6.1,13.2c-1.3,2.6-2.7,5.3-4.8,9.3c-2.5,5.4-5.2,10.7-7.5,15.3l-0.1,0.3l-0.1,0.2c-2.8,5.9-6.8,13.9-10.2,21.4
	c-6.9,15.5-10.8,27.7-12.4,39.6c-0.8,5.9-1,11.8-0.6,17.7c0.3,4.1,0.9,8.2,1.9,12.2c0.3,1.2,0.6,2.5,1,3.7c-2.4,1.8-4.9,3.6-7.4,5.4
	c-5.5,4-11.6,8-18.4,12.4l-3.7,2.3l0.1-1.3l0.1-1.1l0.1-1.9c0.2-3.2,0.7-6.6,1.4-10.5c0.6-3.5,1.4-7.4,2.6-11.7
	c1-3.7,2.1-7.6,3.4-11.6c1.9-5.9,4.1-12.2,5.8-16.8l0.2-0.6l0.2-0.6l1.8-5c2.4-6.9,5.2-15,7.5-23.2c2.4-8.2,4-16.5,4.9-25
	c0.5-6.4,0.7-12.9,0.5-19.3v-0.5c0-1.4,0-2.8-0.1-4.1s-0.1-2.5-0.1-3.8v-0.2l-0.1-1c-0.1-1.8-0.2-4.1-0.2-6.6
	c-0.1-1.4-0.3-2.8-0.5-4.1c-0.9,2.1-1.7,4.2-2.3,6.4c-0.5,1.8-1.1,3.5-1.6,5.2l-0.3,0.9c-0.5,1.8-1.1,3.6-1.7,5.4
	c-0.4,1.4-0.9,2.7-1.4,4.1c-0.6,2-1.1,3.7-1.6,5.2c-0.6,1.7-1.2,3.3-1.9,4.9L142,53l-0.6,1.4l-1.3,3.3l-1.3,3.3
	c-1.6,4-3.4,8.6-5.2,13.3c-4,10.4-6.9,19-9.2,27.1c-2.5,8.6-4.3,17.4-5.5,26.3c-1,8.1-1.2,16.3-0.6,24.4c0.3,4,0.9,7.9,1.7,11.8
	c0.2,0.8,0.3,1.4,0.4,2c0.3,1.2,0.6,2.5,1,3.7c0.2,0.7,0.4,1.3,0.6,1.9c-5.3,3.2-10.9,6.6-15.9,9.7l-2,1.2l-2.9,1.8
	c-1.7,1-3.4,2.1-5.1,3.1l0.7-2.4l0.1-0.5l0.6-2.3c1-3.9,2.2-9,3.4-14.2c2.3-9.4,4-19,5.3-28.6c2.3-18.8,2.1-37.4,1.6-56.4l-0.2-7.3
	l-0.1-2.3l-0.1-2.3c-0.4-4.1-0.8-8.2-1.3-12.4s-1.1-8.4-1.7-13.1l-0.3,0.6v0.2c-0.2,0.7-0.3,1.4-0.5,2.1l-0.1,0.3l-0.2,0.8
	c-0.3,1.2-0.6,2.4-1,3.6c-0.6,2.3-1.3,4.6-2,6.9c-1.4,4.7-2.9,9.5-4.3,13.8L93.4,82l-0.2,0.5L93,83.2L92.8,84
	c-1.8,5.7-3.7,11.5-5.4,17.3c-1.6,5.1-2.8,9.6-3.9,13.8c-0.9,3.2-1.9,7-2.6,10.8c-1.3,6.6-2.2,13.3-2.5,20c-0.4,7.3-0.2,14.7,0.7,22
	c0.4,3.1,0.9,6,1.5,8.5c0.9,4,2.3,7.9,4,11.6c0.8,1.7,1.8,3.4,2.8,5c-5.1,3.1-10,6.2-14.8,9.5c-4.1,2.8-7.6,5.2-10.7,7.5v-1
	c0-1.6,0-3,0-4.4c0.1-2.2,0.2-4.4,0.4-6.7c0.4-4.3,1-8.5,1.7-13.1l0.8-5.1l0.5-3l0.9-6.1c0.7-4.5,1.4-9.4,2-14.3
	c0.6-4.7,0.8-9.5,0.9-14.3c0-2.5-0.1-5-0.3-7.4s-0.3-4.6-0.6-7.4c-0.4-4.2-1.1-8.7-1.6-12.5l-0.3-1.3v-0.3v-0.3V112v-0.3v-0.2
	l-0.1-0.4v-0.4c-0.6-4.1-1.2-8.8-1.7-13.3c-0.2-2-0.4-3.9-0.5-5.8c0-0.1,0-0.3,0-0.4c0-0.1,0-0.2-0.1-0.2c-0.1-0.2-0.1-0.3-0.3-0.5
	l-0.3,0.6c-1.7,5.6-3.5,11.5-5.6,18.4c-0.8,3.1-1.7,6.2-2.7,10l-1.4,5.1c-1.2,4.5-2.6,9.2-3.8,14c-2,7.6-3.4,13.9-4.5,19.7
	c-1.2,6.3-2,12.7-2.2,19.2c-0.4,5.9,0.1,11.9,1.3,17.7c1.2,5.5,3.6,10.6,6.9,15.2c1.2,1.6,2.5,3.1,4,4.5c-5.1,4-10,8.4-14.5,13.1
	c-4.3,4.5-8.3,9.4-12,14.4c-7.4,10.3-13.9,21.3-19.2,32.9c-1.6,3.3-3.1,6.8-4.9,11.1c-0.8,1.9-1.5,3.8-2.3,5.6l-0.3,0.8L2,293
	c-0.7,1.8-1.4,3.6-1.9,5.4c-0.1,0.5-0.1,0.9,0,1.4c0.2,0.9,0.8,1.6,1.6,2.1c0.8,0.4,1.6,0.5,2.4,0.2c0.8-0.2,1.4-0.8,1.8-1.5
	c0.8-1.6,1.5-3.3,2.1-4.9l0.3-0.7l0.2-0.5l0.4-0.9c1-2.3,2-4.6,3-6.9c2-4.6,4.3-9.3,6.7-14c4.5-9,9.7-17.7,15.5-25.9
	c7-10,15.3-19,24.7-26.9l0.3-0.3c2.4,6.9,5.7,13.4,9.9,19.3c2,3,4.2,5.9,6.6,8.6s4.9,5.3,7.5,7.8c8.3,7.7,18,14.4,30.8,21
	c7.9,3.3,14.5,5.9,21.3,8.2c2.5,0.8,5,1.5,7.6,2.2c0.8,0.2,1.6,0.4,2.3,0.6c-0.2-0.2-0.5-0.4-0.8-0.6l-0.3-0.2
	c-3.2-1.8-6.1-4-8.7-6.5c-5-4.8-9.2-10.3-14-17.2l-1.3-1.9l-1.3-1.9l-0.2-0.3c-3.1-4.7-6.4-9.2-9.9-13.6c-4.9-5.8-10.4-11-16.6-15.5
	c-6.2-4.7-13.2-8.2-20.6-10.4c-2.9-0.8-5.8-1.3-8.8-1.5c0.2-0.1,0.2-0.3,0.1-0.6l-0.1-0.6c4.6-3.5,9.3-6.7,12.8-9.2
	c4.7-3.3,9.7-6.6,15.6-10.4l0.3,0.4l0,0c0,0.2,0.2,0.5,0.3,0.6c2.9,3.1,5.6,6.5,8,10l2.4,3.4c1.6,2.2,3.3,4.6,5,6.9
	c2.5,3.4,5.3,6.6,8.3,9.6s6.4,5.6,9.9,7.8c3.2,2,6.5,3.6,10,5c3.3,1.3,6.8,2.4,10.3,3.2c7.1,1.6,14.3,2.7,21.5,3.2
	c2.6,0.2,5.3,0.4,7.9,0.6h0.4h0.4h0.7c4,0.3,8.4,0.6,12.7,1h0.2c3.1,0.2,6.2,0.5,9.3,0.8l3.6,0.3l2.3,0.2l3,0.3
	c1.7,0.2,3.6,0.3,5.4,0.7l1.4,0.3c1,0.2,1.9,0.3,2.8,0.5c-1-1.1-2.2-2-3.4-2.9c-1.4-1-3-2.2-4.8-3.3c-3.3-2-6.6-3.9-10.1-5.5
	c-6.7-3-13.5-5.6-20.5-7.9l-1-0.3c-7.3-2.4-14.5-5.3-21.5-8.6c-5.9-3.1-11.6-6.5-17.1-10.2l-1.4-1c-6.1-4.1-12.4-7.8-19-11.1
	c-4.1-2-8.3-3.5-12.7-4.5c-2.2-0.5-4.5-0.9-6.8-1c-1.7-0.1-3.5-0.2-5.2-0.1l0.3-0.7c2.9-1.9,5.9-3.7,8.8-5.6l2.2-1.4l1.9-1.2
	l0.6-0.4c5-3.2,10.2-6.4,15.3-9.7c0,0.1,0,0.1,0,0.2c0,0.1,0.1,0.3,0.2,0.4c3.2,3.4,5.7,6.1,8.5,8.6c2.9,2.7,6,5.3,9.2,7.6
	c6.4,4.7,13.5,8.4,21,11.1c4.1,1.5,8.4,2.6,12.7,3.5c4.8,1,9.2,1.8,13.7,2.3c9.2,1.1,18.5,1.2,27.8,0.3c4.9-0.5,9.8-1.3,14.6-2.2
	l0.3-0.1l1.9-0.3c2.6-0.4,5.6-1,8.9-1.4c2.2-0.6,4.5-1.2,6.8-1.6s4.5-0.8,6.6-1l0.4-0.1l0.4-0.1l0.3-0.1c-0.1-0.1-0.2-0.1-0.3-0.2
	c-2.6-0.3-5.2-0.6-7.7-0.9l-2.2-0.3c-3.3-0.4-6.7-0.8-10-1.3c-7.5-1-14-2-20.1-3.2c-8.8-1.7-17.5-4.1-25.9-7.1
	c-4.6-1.7-9.3-3.7-13-5.3l-0.4-0.2l-0.8-0.3l-1.3-0.5c-2-0.8-4-1.7-6-2.5c-7.1-3-14.4-5.4-21.9-7c-3.7-0.8-7.5-1.2-11.2-1.3
	c-3.1-0.1-6.1,0.1-9.2,0.6c1.6-0.9,3.2-2,4.7-3c6.8-4.6,13.8-9.5,20.6-14.8c1.5-1.1,3-2.3,4.4-3.4c0.2,0,0.4,0,0.5-0.1
	c0.1,0,0.2,0.1,0.4,0.1l0.2,0.1c2.1,0.9,4.3,1.8,6.4,2.8c1.5,0.7,3,1.4,4.4,2.1l0.4,0.2l1.5,0.7l3,1.4l0.8,0.4l1.8,0.8l0.8,0.4
	c2.1,1,4.2,2,6.4,3c5.2,2.4,9.2,4.1,12.9,5.6c4,1.6,7.7,2.8,12.9,4.5c8.7,2.9,17.6,5.1,26.6,6.4c4.5,0.6,9,0.8,13.5,0.6
	c4.7-0.3,9.4-1,14-2.3c3.6-1,7.2-2.2,9.6-3c2.6-1.1,5.3-2.2,8-3.3l2.5-1l0.2-0.1l0.3-0.1l0.8-0.3l2.5-1l1.5-0.7l1.7-0.8
	c1-0.4,2.1-0.8,3.1-1.2c-0.2-0.3-0.5-0.5-0.8-0.5l-1.3-0.2l-0.6-0.1h-0.2l-0.3-0.1c-1.4-0.3-2.8-0.5-4.2-0.7
	c-2.3-0.4-4.5-0.7-6.8-0.9c-3.9-0.5-8.1-0.8-13.6-1.1l-7.3-0.4h-0.7c-5.7-0.3-12.8-0.7-19.4-1.4c-4.3-0.5-8.4-1.1-12.2-1.8
	c-4-0.8-8.3-1.9-11.4-2.7l-0.2-0.1h-0.2l-1-0.3l-1.3-0.3c-3.7-1-7.6-2-11.5-2.9c-8.5-2.2-17.2-3.6-25.9-4.2c-5-0.3-10-0.1-15,0.6
	l-0.2-0.1c4.5-3.4,9-7.1,13.2-10.6h-0.3c1.5-1.1,3-2.2,4.4-3.5l0.3-0.2l2.4-2h-0.2l2.1-1.6l2.3-1.9c4.6-3.7,8.2-6.7,11.6-9.3
	l0.1,0.5c0.2,0.5,0.7,0.8,1.2,0.9c1.5,1.7,3.1,3.2,4.9,4.5c1.5,1.2,3.1,2.3,4.6,3.3l0.3,0.2l1.2,0.9l0.6,0.4l0.5,0.3
	c1.4,1,2.7,1.9,4.1,2.7c1.6,1,3.3,2,5.2,3.1c3.5,1.9,7.1,3.6,10.8,5.1c7.4,2.9,15.2,4.9,23.2,5.9c4.1,0.5,8.2,0.7,12.3,0.7
	c4.2,0,8.4-0.4,12.5-0.9c1.2-0.1,2.4-0.3,3.6-0.5l1.1-0.1c5.6-0.9,11.3-1.4,17-1.6c1.4-0.2,2.8-0.2,4.2-0.3c2-0.1,3.7-0.1,5.3,0
	c0.7,0,1.3,0,2,0.1c-1.5-1.3-3.2-2.5-4.9-3.5c-1.6-0.9-3.3-1.8-5.4-2.8c-1.7-0.8-3.5-1.5-5.7-2.3s-4-1.4-5.8-2
	c-3.7-1.1-7.6-2.1-11.9-2.9c-1.5-0.3-2.9-0.6-4.4-0.8l-1.9-0.3l-2.1-0.4l-5.2-1c-4.6-0.8-8.9-1.7-12.7-2.5c-2-0.4-4-0.8-6-1.3
	s-4.1-1-6.1-1.6l-5-1.4l-3-0.8l-1.6-0.4c8.4-1.8,16.5-4.7,24.3-8.4c2.1-1,4.2-2.1,6.1-3.1l0.4-0.2c2.8-1.5,4.7-2.6,6.4-3.6l0.2-0.1
	c3.9-2.3,8.3-4.9,12.5-7.8c2-1.3,4-2.7,6-4.1c1.1-0.8,2.2-1.5,3.2-2.3l0.7-0.5l0.3-0.2l1.6-1.1l3.7-2.7c2.5-1.8,5-3.5,7.5-5.3
	c2.4-1.7,4.7-3.3,7-4.9C308.2,78.3,309.4,77.4,310.6,76.4L310.6,76.4z"/>
</svg>
