<?xml version="1.0" encoding="utf-8"?>
<!-- Generator: Adobe Illustrator 25.0.1, SVG Export Plug-In . SVG Version: 6.00 Build 0)  -->
<svg version="1.1" id="Layer_1" xmlns:serif="http://www.serif.com/"
	 xmlns="http://www.w3.org/2000/svg" xmlns:xlink="http://www.w3.org/1999/xlink" x="0px" y="0px" viewBox="0 0 1080 1080"
	 style="enable-background:new 0 0 1080 1080;" xml:space="preserve">
<style type="text/css">
	.st0{fill-rule:evenodd;clip-rule:evenodd;}
</style>
<path class="st0" d="M948.1,0c72.8,0,131.9,59.1,131.9,131.9v816.1c0,72.8-59.1,131.9-131.9,131.9H131.9C59.1,1080,0,1020.9,0,948.1
	V131.9C0,59.1,59.1,0,131.9,0L948.1,0L948.1,0z M540,170.9c-100.3,0-112.8,0.4-152.2,2.2c-39.3,1.8-66.1,8-89.6,17.2
	c-24.3,9.4-44.9,22.1-65.4,42.6c-20.5,20.5-33.1,41.1-42.6,65.4c-9.1,23.5-15.4,50.3-17.2,89.6c-1.8,39.4-2.2,51.9-2.2,152.2
	s0.4,112.8,2.2,152.2c1.8,39.3,8,66.1,17.2,89.6c9.4,24.3,22.1,44.9,42.6,65.4s41.1,33.1,65.4,42.6c23.5,9.1,50.3,15.4,89.6,17.2
	c39.4,1.8,51.9,2.2,152.2,2.2s112.8-0.4,152.2-2.2c39.3-1.8,66.1-8,89.6-17.2c24.3-9.4,44.9-22.1,65.4-42.6s33.1-41.1,42.6-65.4
	c9.1-23.5,15.4-50.3,17.2-89.6c1.8-39.4,2.2-51.9,2.2-152.2s-0.4-112.8-2.2-152.2c-1.8-39.3-8-66.1-17.2-89.6
	c-9.4-24.3-22.1-44.9-42.6-65.4c-20.5-20.5-41.1-33.1-65.4-42.6c-23.5-9.1-50.3-15.4-89.6-17.2C652.8,171.3,640.3,170.9,540,170.9
	L540,170.9z M540,237.4c98.6,0,110.2,0.4,149.2,2.2c36,1.6,55.5,7.7,68.5,12.7c17.2,6.7,29.5,14.7,42.4,27.6
	c12.9,12.9,20.9,25.2,27.6,42.4c5.1,13,11.1,32.6,12.7,68.5c1.8,38.9,2.2,50.6,2.2,149.2s-0.4,110.2-2.2,149.2
	c-1.6,36-7.7,55.5-12.7,68.5c-6.7,17.2-14.7,29.5-27.6,42.4c-12.9,12.9-25.2,20.9-42.4,27.6c-13,5.1-32.6,11.1-68.5,12.7
	c-38.9,1.8-50.6,2.2-149.2,2.2s-110.2-0.4-149.2-2.2c-36-1.6-55.5-7.7-68.5-12.7c-17.2-6.7-29.5-14.7-42.4-27.6
	c-12.9-12.9-20.9-25.2-27.6-42.4c-5.1-13-11.1-32.6-12.7-68.5c-1.8-38.9-2.2-50.6-2.2-149.2s0.4-110.2,2.2-149.2
	c1.6-36,7.7-55.5,12.7-68.5c6.7-17.2,14.7-29.5,27.6-42.4c12.9-12.9,25.2-20.9,42.4-27.6c13-5.1,32.6-11.1,68.5-12.7
	C429.8,237.7,441.4,237.4,540,237.4L540,237.4z M540,350.4c-104.7,0-189.6,84.9-189.6,189.6S435.3,729.6,540,729.6
	S729.6,644.7,729.6,540S644.7,350.4,540,350.4L540,350.4z M540,663c-68,0-123-55.1-123-123S472,417,540,417c68,0,123,55.1,123,123
	C663,608,608,663,540,663z M781.3,343c0,24.5-19.8,44.3-44.3,44.3c-24.5,0-44.3-19.8-44.3-44.3s19.8-44.3,44.3-44.3
	C761.5,298.7,781.3,318.5,781.3,343L781.3,343z"/>
</svg>
