<svg xmlns="http://www.w3.org/2000/svg" viewBox="0 0 395.06 395.06"><defs><style>.cls-1{fill:#f6bdac;}.cls-2{fill:#c2968b;}.cls-3{fill:#daa79d;}</style></defs><g id="Layer_2" data-name="Layer 2"><g id="Layer_2_copy" data-name="Layer 2 copy"><path class="cls-1" d="M198.52,298.67A100.7,100.7,0,1,1,299.21,198,100.81,100.81,0,0,1,198.52,298.67Z"/><rect class="cls-2" x="188" y="323.15" width="19.05" height="71.92" rx="9.53"/><rect class="cls-2" x="302.25" y="275.82" width="19.05" height="71.92" rx="9.53" transform="translate(-129.14 311.78) rotate(-45)"/><rect class="cls-2" x="323.15" y="188" width="71.92" height="19.05" rx="9.53"/><rect class="cls-2" x="275.82" y="73.75" width="71.92" height="19.05" rx="9.53" transform="translate(32.43 244.86) rotate(-45)"/><rect class="cls-2" x="188" width="19.05" height="71.92" rx="9.53"/><rect class="cls-2" x="73.75" y="47.32" width="19.05" height="71.92" rx="9.53" transform="translate(-34.5 83.28) rotate(-45)"/><rect class="cls-2" y="188" width="71.92" height="19.05" rx="9.53"/><rect class="cls-2" x="47.32" y="302.25" width="71.92" height="19.05" rx="9.53" transform="translate(-196.07 150.21) rotate(-45)"/><path class="cls-3" d="M197.53,298.06a100.7,100.7,0,1,1,100.7-100.7A100.81,100.81,0,0,1,197.53,298.06Zm0-183.39a82.7,82.7,0,1,0,82.7,82.69A82.78,82.78,0,0,0,197.53,114.67Z"/></g></g></svg>