<svg xmlns="http://www.w3.org/2000/svg" viewBox="0 0 396.42 312"><defs><style>.cls-1{fill:#daa79d;}.cls-2{fill:#f6bdac;}</style></defs><g id="Layer_2" data-name="Layer 2"><g id="Layer_2_copy" data-name="Layer 2 copy"><path class="cls-1" d="M345.76,202.16A71.21,71.21,0,0,0,291.61,85.21a67.43,67.43,0,0,0-93.05-59.08A88.46,88.46,0,0,0,47.33,88.48v.85A71.26,71.26,0,0,0,71.25,227.72h33.82A54.74,54.74,0,0,0,96.63,257h0a55,55,0,0,0,55,55H341.4a55,55,0,0,0,55-55h0A55,55,0,0,0,345.76,202.16Z"/><path class="cls-2" d="M15,156.46A56.25,56.25,0,0,1,57,102l6.06-1.58-.48-6.25c-.16-2.14-.24-4-.24-5.73a73.46,73.46,0,0,1,128.8-48.33L195,44.57l5.22-2.7a51.83,51.83,0,0,1,24-5.83,52.51,52.51,0,0,1,52.44,52.44c0,1.1-.05,2.27-.15,3.71l-.56,8h15.16A56.22,56.22,0,0,1,335,191.67a51.71,51.71,0,0,0-75-39.32,69.87,69.87,0,0,0-122.5,46c0,1.83.1,3.64.24,5.44a54.74,54.74,0,0,0-18.71,9H71.25A56.32,56.32,0,0,1,15,156.46Z"/></g></g></svg>