<svg xmlns="http://www.w3.org/2000/svg" viewBox="0 0 1080 1080" style="enable-background:new 0 0 1080 1080" xml:space="preserve"><path d="M948.1 0c72.8 0 131.9 59.1 131.9 131.9V948c0 72.8-59.1 131.9-131.9 131.9H131.9C59.1 1080 0 1020.9 0 948.1V131.9C0 59.1 59.1 0 131.9 0h816.2zM540 170.9c-100.3 0-112.8.4-152.2 2.2-39.3 1.8-66.1 8-89.6 17.2-24.3 9.4-44.9 22.1-65.4 42.6-20.5 20.5-33.1 41.1-42.6 65.4-9.1 23.5-15.4 50.3-17.2 89.6-1.8 39.4-2.2 51.9-2.2 152.2s.4 112.8 2.2 152.2c1.8 39.3 8 66.1 17.2 89.6 9.4 24.3 22.1 44.9 42.6 65.4s41.1 33.1 65.4 42.6c23.5 9.1 50.3 15.4 89.6 17.2 39.4 1.8 51.9 2.2 152.2 2.2s112.8-.4 152.2-2.2c39.3-1.8 66.1-8 89.6-17.2 24.3-9.4 44.9-22.1 65.4-42.6s33.1-41.1 42.6-65.4c9.1-23.5 15.4-50.3 17.2-89.6 1.8-39.4 2.2-51.9 2.2-152.2s-.4-112.8-2.2-152.2c-1.8-39.3-8-66.1-17.2-89.6-9.4-24.3-22.1-44.9-42.6-65.4-20.5-20.5-41.1-33.1-65.4-42.6-23.5-9.1-50.3-15.4-89.6-17.2-39.4-1.8-51.9-2.2-152.2-2.2zm0 66.5c98.6 0 110.2.4 149.2 2.2 36 1.6 55.5 7.7 68.5 12.7 17.2 6.7 29.5 14.7 42.4 27.6 12.9 12.9 20.9 25.2 27.6 42.4 5.1 13 11.1 32.6 12.7 68.5 1.8 38.9 2.2 50.6 2.2 149.2s-.4 110.2-2.2 149.2c-1.6 36-7.7 55.5-12.7 68.5-6.7 17.2-14.7 29.5-27.6 42.4-12.9 12.9-25.2 20.9-42.4 27.6-13 5.1-32.6 11.1-68.5 12.7-38.9 1.8-50.6 2.2-149.2 2.2s-110.2-.4-149.2-2.2c-36-1.6-55.5-7.7-68.5-12.7-17.2-6.7-29.5-14.7-42.4-27.6-12.9-12.9-20.9-25.2-27.6-42.4-5.1-13-11.1-32.6-12.7-68.5-1.8-38.9-2.2-50.6-2.2-149.2s.4-110.2 2.2-149.2c1.6-36 7.7-55.5 12.7-68.5 6.7-17.2 14.7-29.5 27.6-42.4 12.9-12.9 25.2-20.9 42.4-27.6 13-5.1 32.6-11.1 68.5-12.7 39-1.9 50.6-2.2 149.2-2.2zm0 113c-104.7 0-189.6 84.9-189.6 189.6S435.3 729.6 540 729.6 729.6 644.7 729.6 540 644.7 350.4 540 350.4zm0 312.6c-68 0-123-55.1-123-123s55-123 123-123 123 55.1 123 123c0 68-55 123-123 123zm241.3-320c0 24.5-19.8 44.3-44.3 44.3-24.5 0-44.3-19.8-44.3-44.3s19.8-44.3 44.3-44.3c24.5 0 44.3 19.8 44.3 44.3z" style="fill: #6f1132"/></svg>