<svg xmlns="http://www.w3.org/2000/svg" viewBox="0 0 354.8 344.97"><defs><style>.cls-1{fill:#daa79d;}.cls-2{fill:#f6bdac;}</style></defs><g id="Layer_2" data-name="Layer 2"><g id="Layer_2_copy" data-name="Layer 2 copy"><path class="cls-1" d="M285.39,83.58a65.92,65.92,0,0,0-65.76-62.94,65.08,65.08,0,0,0-25.29,5A86.44,86.44,0,0,0,46.42,86.46c0,.35,0,.71,0,1.06A69.57,69.57,0,0,0,69.56,222.7H285.24a69.56,69.56,0,0,0,.15-139.12Z"/><path class="cls-1" d="M187.76,249.12,170.23,275.9a8.23,8.23,0,0,1-13.78-9L174,240.1a8.23,8.23,0,1,1,13.77,9Z"/><path class="cls-2" d="M125.05,275l-17.54,26.78a8.23,8.23,0,1,1-13.77-9l17.53-26.79a8.24,8.24,0,0,1,11.4-2.38h0A8.24,8.24,0,0,1,125.05,275Z"/><path class="cls-1" d="M83.65,249.12,66.11,275.9a8.23,8.23,0,0,1-11.4,2.38h0a8.23,8.23,0,0,1-2.37-11.39L69.87,240.1a8.23,8.23,0,0,1,13.78,9Z"/><path class="cls-2" d="M62.24,324.82l-8.72,13.33a8.23,8.23,0,1,1-13.78-9l8.73-13.33a8.23,8.23,0,0,1,11.39-2.38h0A8.23,8.23,0,0,1,62.24,324.82Z"/><path class="cls-2" d="M237.54,275,220,301.74a8.23,8.23,0,1,1-13.77-9l17.53-26.79a8.24,8.24,0,0,1,11.4-2.38h0A8.24,8.24,0,0,1,237.54,275Z"/><path class="cls-2" d="M172.43,311.05,154.9,337.84a8.23,8.23,0,0,1-13.78-9L158.66,302a8.23,8.23,0,1,1,13.77,9Z"/><path class="cls-2" d="M266.29,321.72l-12.78,19.53a8.23,8.23,0,1,1-13.78-9l12.79-19.53a8.23,8.23,0,0,1,11.4-2.38h0A8.23,8.23,0,0,1,266.29,321.72Z"/><path class="cls-1" d="M291.88,249.12,274.35,275.9a8.23,8.23,0,0,1-13.78-9l17.54-26.79a8.23,8.23,0,1,1,13.77,9Z"/><path class="cls-2" d="M285.24,208.65H69.56A55.51,55.51,0,0,1,55.49,99.44L61.17,98l-.45-5.85c-.17-2.1-.24-3.95-.24-5.64A72.38,72.38,0,0,1,187.39,38.83L191,43l4.89-2.53a51.16,51.16,0,0,1,23.72-5.76A51.84,51.84,0,0,1,271.4,86.46c0,1.09,0,2.25-.15,3.66l-.53,7.51h14.52a55.51,55.51,0,0,1,0,111Z"/></g></g></svg>