<?xml version="1.0" encoding="utf-8"?>
<!-- Generator: Adobe Illustrator 25.0.1, SVG Export Plug-In . SVG Version: 6.00 Build 0)  -->
<svg version="1.1" id="Layer_1" xmlns="http://www.w3.org/2000/svg" xmlns:xlink="http://www.w3.org/1999/xlink" x="0px" y="0px"
	 viewBox="0 0 340.8 84.2" style="enable-background:new 0 0 340.8 84.2;" xml:space="preserve">
<style type="text/css">
	.st0{fill:#BA9287;}
</style>
<g>
	<g>
		<path class="st0" d="M119.4,2.5c-10.2,1.9-17.2,6-17.2,6C99,6.9,88.8-3.7,53.8,1.4C31.6,4.7,16.6,16.3,16.6,24.2
			c0,3.6,6.4,4.9,12.6,7.5c6.6,2.7,13,6.9,13,14.6c0,15-14.8,17.4-19.1,17.4c-9.7,0-21.1-11.6-21.1-15.9c0-3.6,1.4-4.5,1.4-4.5
			S3.1,48.5,8,48.5c2,0,4.3-1.6,5.1-5.3c0.7-3.3-0.9-6.8-3.4-6.8c-3,0-9.6,2.1-9.6,10.3c0,5.5,9.7,21.2,25.5,21.2
			c10.5,0,22.9-10.1,22.9-23.8c0-8.1-8.4-12.3-15.6-15.4c-5-2.1-9.5-3.5-9.5-6.1c0-4.9,16-14.3,30.8-18c21-5.2,41.3,0,47.9,4.5
			c0,0,7-4.3,17.7-5.9s19.8,0.5,19.8,0.5S129.5,0.6,119.4,2.5z"/>
		<path class="st0" d="M67,23.5l4.5-16.8c0,0,1.2-0.3,2.7-0.3S77,6.7,77,6.7l-4.4,16.7h101.8L163.9,63h-5.7l1.1-3.9
			c0,0-4.1,3.9-9.1,3.9c-6.5,0-5.1-6.2-5.1-6.2s-6.3,7.2-9.7,6c-3.5-1.2-2.4-6-2.4-6l3.2-11.8c0,0,0.9-1.8-0.4-2.5
			c-1.4-0.8-4.1,0.4-7,3.4c-0.5,1.9-4.6,17.1-4.6,17.1l-5.7,0c0,0,1.6-6.2,2.2-8.3c-3.4,3.7-10,8.8-12.1,8.2c-2-0.7-2.5-2.1-2.9-4.3
			c-2.4,2.3-6,5-11.4,4.2c-5.3-0.8-3.2-9.2-1.7-13.1c1.5-3.9,4.8-10.3,9.8-10.3c5,0,7.4,3.4,7.4,3.4l0.9-3.7h5.7l-4.5,17.1
			c0,0-0.9,2.1,0.6,3c2.2,1.2,6.1-3.2,8.4-5.5c0.5-2,3.9-14.6,3.9-14.6l5.7,0c0,0-0.8,3.1-1.3,4.7c1.4-1.8,8.9-6.8,11.9-3.7
			c1.8,2.1,0.7,4.1,0.7,4.1l-3,11.7c0,0-1,2.4,0.5,3.3c1.9,1.1,5.6-2.8,5.6-2.8s0.6-3.7,1.9-7.3c1.4-3.7,4.7-9.8,9.7-9.8
			c3.8,0,7.1,3.4,7.1,3.4l4.5-16.9l-96.1,0c0,0-6.7,24.1-7.7,28.3c-0.9,4.2,1.2,5.8,2.4,6c2.6,0.5,10.5-7.8,10.5-7.8l3.5-13.2l5.7,0
			c0,0-1.2,4.3-1.8,6.8c6.5-11.2,14.2-13.4,15.6-13.4c1.4,0,2.1,0.9,2.1,2.1c0,1.2-1.6,3.3-4.5,3.3s-2-2.7-2-2.7S89,38.7,83.6,49.8
			C82.7,53.2,80.1,63,80.1,63h-5.7c0,0,2.2-8.3,2.5-9.4c-4,5.4-12.4,10.5-14.9,9c-2.5-1.4-4.5-3.6-2.7-10.3
			c1.8-6.7,7.1-26.6,7.1-26.6l-18.7,0c0,0-0.9-0.7-1.7-1.2c-0.9-0.6-2.6-1-2.6-1L67,23.5z M109.1,44.7c0,0-1.5-1.5-4.2-1.3
			c-3.6,0.2-6.6,5.1-7.5,8.9c-0.7,2.9-2.4,7.9,0.2,8.5c2.6,0.6,6.6-1.7,8.2-3.5C106.7,54,109.1,44.7,109.1,44.7z M163.1,44.7
			c0,0-1.5-1.5-4.2-1.3c-3.6,0.2-6.6,5.1-7.5,8.9c-0.7,2.9-2.4,7.9,0.2,8.5c2.6,0.6,6.6-1.7,8.2-3.5C160.6,54,163.1,44.7,163.1,44.7
			z"/>
		<g>
			<path class="st0" d="M260.6,42.2c3.3,0.7,2,7.2,1,9.7c-1,2.5-3.1,10.8-6.7,9.6c-3.6-1.2-1.6-8.3-0.4-11.3
				C255.7,47.1,257.2,41.6,260.6,42.2z M249.6,48.9c-2.5,5.9-3.8,13,5.2,14.4c7.7,1.2,10.2-5.8,11.9-11c1.7-5.3,2.4-12.7-5.4-13
				C253.4,38.9,251.5,44.5,249.6,48.9z"/>
			<path class="st0" d="M190,22.8c-4.4,0.1-6.8-2.1-8.1-5.8c-1.1-3.1,7.2-14.7,31.5-14.7c7.6,0,16.2,2.2,21.9,1.3
				c4.4-0.7,6.5-3.6,6.5-3.6l-10.5,38.7c0,0,2.9-1.1,4.8-2.2c2.5,1.8,4.1,2.6,4.1,2.6l5.8-21.7h5.5c0,0-5.4,20.2-6.1,23
				c4.4,0.7,9.5-2.1,9.5-2.1s-4.1,3.1-9.7,2.9c-0.5,1.7-2.3,8.7-3.5,13.2c-0.8,2.9,0,11.5,5.8,17.2c4.1,4,16.7,10.5,28.7,10.5
				c22.8,0,34.8-13.2,34.8-13.2s-8.2-6.3-5.6-15.8c-6.3,7.5-10.6,10.1-15.7,10.1c-5.2,0-5.8-4.5-5.8-4.5s-7.2,5.3-9.7,4.1
				c-5.4-2.6-3.1-9.3-3.1-9.3l7.5-28.1h-25.5l0.7-2.1H279l1.6-5.8h5.6l-1.6,5.8h25.5l-0.7,2.1H284l-7.6,28.5c0,0-1.2,5.5,2.2,6.4
				c1.9,0.2,4.4-2.3,5.3-2.9c2.1-13.4,7.2-18.1,12.7-18.1s7.6,3.5,7.6,3.5l-14.3,11.2c0,0-1.8,6.2,2.9,7.2c4.7,1,12.7-8.8,12.7-8.8
				l9.3-34.8h5.7c0,0-9.1,33.8-10,37.2c-2.5,9.3,2,12.2,2,12.2s12.5-15.3,21.9-15.3c4.3,0,8.2,2.3,5.3,11.2
				c-2.4,7.3-11.6,10.3-16.5,10.3c-6.5,0-10.8-3-10.8-3s-12.4,14.1-37.3,14.1c-13,0-25.6-6.6-30.1-10c-7.2-5.5-10-16.1-8.9-20.6
				c1.5-5.7,3.6-13.6,3.6-13.6s-2.1-1-4.1-2.5c-1.7,1.1-4.8,2.1-4.8,2.1s-3.1,11.7-3.8,14.3c-1.2,4.5-9.4,13.7-24,13.7
				c-14.5,0-25.7-9.7-25.1-18.4c0.6-8.8,11.8-12.5,23.5-12.5c4,0,11.7,2,15.7,2.4c4,0.4,8.2,0.6,8.2,0.6s8.2-30,9.2-34
				c-1.1,0.1-4.2,0.1-7.6-0.3c-5.3-0.6-7.1-1.8-13.4-1.8c-6.3,0-26,4.6-24.9,11.1c1.1,6.6,9.1,3.3,9.1,3.3l15.9-7.5l-15.1,8.8
				C198.7,19.3,194,22.7,190,22.8z M292.7,45.4l-2.4,7.3l9.1-7.3c0,0-1.2-3.7-3.6-3.5C293.4,42,292.7,45.4,292.7,45.4z M328.4,69.1
				c7.6-2.3,9.7-6.5,10.1-8.4c0.4-1.9-1.3-6.3-4.3-6.3c-3,0-10.1,3.4-19.6,13.8C315.6,68.6,320.7,71.4,328.4,69.1z M225.2,40.6
				c-3.7,0.3-3.5,0.2-7.7-0.1c-4.3-0.3-10.6-2.2-14.9-2.2c-7.5,0-17.6,2.8-18.4,10.9c-0.7,6.9,7.3,14.1,19.3,14.9
				c11.3,0.7,18.4-9,18.9-12.8C223,48.8,224.8,41.9,225.2,40.6z"/>
		</g>
	</g>
</g>
</svg>
