<svg xmlns="http://www.w3.org/2000/svg" viewBox="0 0 341.6 365.92"><defs><style>.cls-1{fill:#daa79d;}.cls-2{fill:#f6bdac;}</style></defs><g id="Layer_2" data-name="Layer 2"><g id="Layer_2_copy" data-name="Layer 2 copy"><path class="cls-1" d="M341.6,147.55A67.52,67.52,0,0,1,274.16,215H67.44A67.45,67.45,0,0,1,44.5,84.12c0-.16,0-.32,0-.48A83.62,83.62,0,0,1,187.23,24.48,63.85,63.85,0,0,1,275,80.12,67.51,67.51,0,0,1,341.6,147.55Z"/><path class="cls-2" d="M99.37,287.17a4.62,4.62,0,0,1-3.29-1.36l-8.35-8.36v11.82a4.66,4.66,0,0,1-9.31,0V277.45l-8.35,8.36a4.66,4.66,0,0,1-6.59-6.59l8.36-8.35H60a4.66,4.66,0,0,1,0-9.31H71.84l-8.36-8.35a4.66,4.66,0,0,1,6.59-6.58L78.42,255V243.17a4.66,4.66,0,1,1,9.31,0V255l8.35-8.35a4.65,4.65,0,1,1,6.58,6.58l-8.35,8.35h11.82a4.66,4.66,0,0,1,0,9.31H94.31l8.35,8.35a4.65,4.65,0,0,1,0,6.59A4.59,4.59,0,0,1,99.37,287.17Z"/><path class="cls-2" d="M197.81,285.81a4.67,4.67,0,0,0,0-6.59l-8.35-8.35h11.81a4.66,4.66,0,0,0,0-9.31H189.45l8.36-8.35a4.65,4.65,0,1,0-6.58-6.58L182.87,255V243.17a4.66,4.66,0,1,0-9.31,0V255l-8.35-8.35a4.65,4.65,0,0,0-6.58,0,4.66,4.66,0,0,0,0,6.58l8.35,8.35H155.17a4.66,4.66,0,1,0,0,9.31H167l-8.35,8.35a4.66,4.66,0,0,0,6.58,6.59l8.35-8.36v11.82a4.66,4.66,0,0,0,9.31,0V277.45l8.36,8.36a4.66,4.66,0,0,0,6.58,0Z"/><path class="cls-2" d="M148.7,333.56H136.88l8.36-8.35a4.66,4.66,0,0,0-3.29-7.95,4.67,4.67,0,0,0-3.3,1.36L130.3,327V315.16a4.66,4.66,0,0,0-9.31,0V327l-8.35-8.36a4.66,4.66,0,1,0-6.58,6.59l8.35,8.35H102.6a4.66,4.66,0,1,0,0,9.31h11.81l-8.35,8.35a4.65,4.65,0,1,0,6.58,6.58l8.35-8.35v11.82a4.66,4.66,0,0,0,9.31,0V349.45l8.35,8.35a4.66,4.66,0,0,0,6.59-6.58l-8.36-8.35H148.7a4.66,4.66,0,0,0,0-9.31Z"/><path class="cls-2" d="M243.84,333.56H232l8.35-8.35a4.66,4.66,0,0,0-6.58-6.59L225.44,327V315.16a4.65,4.65,0,0,0-9.3,0V327l-8.36-8.36a4.66,4.66,0,0,0-6.58,6.59l8.35,8.35H197.74a4.66,4.66,0,0,0,0,9.31h11.81l-8.35,8.35a4.65,4.65,0,1,0,6.58,6.58l8.36-8.35v11.82a4.65,4.65,0,1,0,9.3,0V349.45l8.36,8.35a4.65,4.65,0,0,0,6.58-6.58L232,342.87h11.81a4.66,4.66,0,1,0,0-9.31Z"/><path class="cls-2" d="M296.41,261.56H284.6l8.35-8.35a4.65,4.65,0,1,0-6.58-6.58L278,255V243.17a4.66,4.66,0,1,0-9.31,0V255l-8.35-8.35a4.66,4.66,0,0,0-6.59,0,4.66,4.66,0,0,0,0,6.58l8.36,8.35H250.31a4.66,4.66,0,0,0,0,9.31h11.82l-8.36,8.35a4.66,4.66,0,0,0,6.59,6.59l8.35-8.36v11.82a4.66,4.66,0,0,0,9.31,0V277.45l8.35,8.36a4.66,4.66,0,1,0,6.58-6.59l-8.35-8.35h11.81a4.66,4.66,0,1,0,0-9.31Z"/></g></g></svg>