<svg xmlns="http://www.w3.org/2000/svg" viewBox="0 0 315.68 341.37"><defs><style>.cls-1{fill:#6f1132;}.cls-2{fill:#c2968b;}.cls-3{fill:#f6bdac;}</style></defs><g id="Layer_2" data-name="Layer 2"><g id="Layer_2_copy" data-name="Layer 2 copy"><path class="cls-1" d="M170.07,228.6c-23.65,0-51.67-.29-53.43-.31a6,6,0,1,1,.12-12c.66,0,65.67.69,81.84,0,9.94-.41,16.71-4.51,19.6-11.85,3.06-7.76,1.14-18.21-4.37-23.79-7.35-7.44-16.86-9.74-25.44-6.14-8.19,3.43-13.19,11.55-13,21.17a6,6,0,0,1-5.91,6.09h-.09a6,6,0,0,1-6-5.91c-.22-14.63,7.6-27.05,20.42-32.42,13.06-5.48,27.86-2.11,38.62,8.78,8.86,9,11.8,24.38,7,36.61-4.62,11.75-15.65,18.84-30.26,19.45C193.47,228.52,182.36,228.6,170.07,228.6Z"/><path class="cls-1" d="M302.69,303c8.87-9,11.81-24.38,7-36.61-4.62-11.75-15.65-18.84-30.26-19.45-16.47-.7-166.8,0-173.19,0a6,6,0,0,0,0,12h0c1.56,0,156.43-.69,172.63,0,9.93.41,16.71,4.51,19.6,11.85,3.05,7.76,1.13,18.21-4.37,23.79-7.35,7.44-16.86,9.74-25.44,6.14-8.2-3.43-13.2-11.55-13.06-21.17a6,6,0,0,0-5.9-6.09h-.1a6,6,0,0,0-6,5.91c-.22,14.63,7.6,27.05,20.41,32.42a32.87,32.87,0,0,0,12.77,2.59C286.12,314.34,295.35,310.41,302.69,303Z"/><path class="cls-1" d="M199.08,330c8.87-9,11.81-24.38,7-36.61-4.62-11.75-15.65-18.84-30.27-19.45-16.48-.7-79.78,0-82.46,0a6,6,0,0,0,.12,12c.66,0,65.66-.69,81.84,0,9.94.41,16.71,4.51,19.6,11.85,3.06,7.76,1.14,18.21-4.37,23.79-7.35,7.44-16.86,9.74-25.44,6.14-8.19-3.43-13.2-11.55-13-21.17a6,6,0,0,0-5.91-6.09h-.09a6,6,0,0,0-6,5.91c-.22,14.63,7.6,27.05,20.41,32.42a33,33,0,0,0,12.78,2.59C182.51,341.37,191.74,337.44,199.08,330Z"/><path class="cls-2" d="M99.77,198.68H144.7V184.81H92.81C95.61,190,97.91,194.59,99.77,198.68Z"/><path class="cls-2" d="M254.17,74A59,59,0,0,0,173,22.63,77.27,77.27,0,0,0,41.12,77.29v.45A62.27,62.27,0,0,0,17.38,179.46c.21-.37.41-.74.63-1.11,2.32-4.07,4.63-7.94,6.76-11.41A48.43,48.43,0,0,1,50,89.47L55.64,88l-.45-5.78c-.14-1.85-.21-3.46-.21-4.94A63.41,63.41,0,0,1,166.16,35.57l3.58,4.09,4.82-2.5a44.66,44.66,0,0,1,20.68-5,45.2,45.2,0,0,1,45.15,45.15c0,.94,0,1.95-.12,3.19l-.52,7.42h13.61a48.46,48.46,0,1,1,0,96.91h-7.68v13.87h7.68A62.32,62.32,0,0,0,254.17,74Z"/><path class="cls-3" d="M90.23,227.75c0-18.33-28.75-61.3-32-66.14a5.54,5.54,0,0,0-9.18,0c-3.28,4.84-32,47.81-32,66.14a36.62,36.62,0,0,0,73.24,0Z"/></g></g></svg>