<?xml version="1.0" encoding="utf-8"?>
<!-- Generator: Adobe Illustrator 25.0.1, SVG Export Plug-In . SVG Version: 6.00 Build 0)  -->
<svg version="1.1" id="Layer_1" xmlns="http://www.w3.org/2000/svg" xmlns:xlink="http://www.w3.org/1999/xlink" x="0px" y="0px"
	 viewBox="0 0 557.4 225.5" style="enable-background:new 0 0 557.4 225.5;" xml:space="preserve">
<style type="text/css">
	.st0{fill:#3E3E3D;}
</style>
<g>
	<path class="st0" d="M93.8,80.9c2.1,0,4.7,0.9,8.3,3.1l1.6,1.1h0.5V66.5H53.5V85H54l1.6-1.1c3.6-2.1,6.1-3.1,8.3-3.1H71v70.9
		c0,2.5-1.2,4.7-2.9,7.2v0.9h21.6V159c-1.7-2.5-2.9-4.7-2.9-7.2V80.9H93.8z"/>
	<path class="st0" d="M135.9,65.5h-14.2v0.9c1.3,0.9,2.5,3.6,2,6l-20.6,82c-0.5,2-1.5,3.3-2.5,4.8v0.7h19.5V159
		c-1.1-2-1.7-3.6-1.1-6l3.7-13.9h13.1l3.3,13.2c0.7,2.4,0,4.7-1.3,6.7v0.9h20.8v-0.8c-1.3-1.6-2.4-3.7-3.1-6.5L135.9,65.5z
		 M125.3,126.4l4.3-20l4,20H125.3z"/>
	<path class="st0" d="M198.6,96.5L213,73.3c1.5-2.4,2.9-4.1,4.8-6.1v-0.7h-21v0.9c1.2,1.7,0.5,3.9-0.5,5.9L182,97.7V74.6
		c0-2.5,0.9-4.8,2.3-7.2v-0.9H164v0.9c1.3,2.5,2.3,4.7,2.3,7.2v77.2c0,2.5-0.9,4.8-2.3,7.2v0.9h20.3V159c-1.3-2.5-2.3-4.7-2.3-7.2
		v-28.2l6.1-10.1l14.4,46.5h18.2v-0.7c-1.3-1.5-2.8-3.2-3.5-5.2L198.6,96.5z"/>
	<path class="st0" d="M263.9,108.1c4.5-4.4,7.9-10.5,7.9-17.6c0-14.4-7.6-24-20.8-24h-24.2v0.9c1.3,2.5,2.3,4.7,2.3,7.2v77.2
		c0,2.5-0.9,4.8-2.3,7.2v0.9h24c15.8,0,26.3-11.2,26.3-28C277.1,121.2,272.7,112.9,263.9,108.1z M244.8,80.1h6c4,0,6.9,4.3,6.9,10.4
		c0,6.9-4.7,13.2-13,13.2V80.1z M250.8,147.5h-6v-31.1h6.7c6.1,0,9.2,6.3,9.2,15.8C260.7,141.4,256.7,147.5,250.8,147.5z"/>
	<path class="st0" d="M312.7,65.5h-14.2v0.9c1.3,0.9,2.5,3.6,2,6l-20.6,82c-0.5,2-1.5,3.3-2.5,4.8v0.7h19.5V159
		c-1.1-2-1.7-3.6-1.1-6l3.7-13.9h13.1l3.3,13.2c0.7,2.4,0,4.7-1.3,6.7v0.9h20.8v-0.8c-1.3-1.6-2.4-3.7-3.1-6.5L312.7,65.5z
		 M302.1,126.4l4.3-20l4,20H302.1z"/>
	<path class="st0" d="M376.6,119.3c7.1-3.6,14.2-13.5,14.2-26.7c0-15.6-9.6-26.2-24-26.2h-25.9v0.9c1.3,2.4,2.3,4.8,2.3,7.2v77.2
		c0,2.4-0.9,4.8-2.3,7.2v0.9H361V159c-1.6-3.1-2.1-5.1-2.1-7.2V121h4.5l11.9,39h17.6V159c-1.7-2.1-3.1-4.4-4-6.8L376.6,119.3z
		 M363.4,107.5h-4.5V81.2h2.7c8,0,12.7,4,12.7,13.1C374.2,102.8,368.6,107.5,363.4,107.5z"/>
	<path class="st0" d="M432.1,146.6H417v-31.2h6.1c2.3,0,5.1,0.9,7.9,2.3h1.1v-17.1H431c-2.8,1.3-5.5,2.3-7.9,2.3H417v-23h12.8
		c2.1,0,4.7,0.8,9.5,3.2h0.5V66.5h-40.9v0.9c1.3,2.4,2.3,4.8,2.3,7.2v77.2c0,2.4-0.9,4.8-2.3,7.2v0.9h43v-17h-0.5
		C437.3,145.3,434.7,146.6,432.1,146.6z"/>
	<path class="st0" d="M483.4,67.4c1.7,2.4,2.4,4.7,2.4,7.2v32.5l-19.9-40.6h-17.2v0.9c1.3,2.4,2.3,4.4,2.3,7.2v77.2
		c0,2.4-1.1,4.8-2.4,7.1v1.1h20.6v-1.1c-1.6-2.4-2.4-4.7-2.4-7.1v-48.7l29.6,56.9h5.5V74.6c0-2.4,0.8-4.8,2.1-7.2v-0.9h-20.6V67.4z"
		/>
	<path class="st0" d="M549.5,114.4c-0.9-0.6-1.9-1-2.8-1.3c0.9-0.3,1.8-0.8,2.8-1.3c2.6-1.7,4.8-4.7,6.1-8.7c1.4-4.1,2-9.3,1.8-14.9
		c-0.3-6.2-1.6-12.8-4-19.7c-2.6-7.6-6.4-15.4-11.3-23.1c-6.2-9.9-14.2-17.9-22.3-22.6c-8.7-5-16.9-5.6-23-1.8
		c-2.5,1.6-4.4,3.6-5.4,5.8c-1.8-5.2-6.5-8.9-12.1-8.9c-2.5,0-4.4,0.6-5.8,1.8c-1.1,1-1.5,2.2-1.7,2.9c-0.4,2.1,0.4,4.3,1.8,4.9
		l1,0.4l0.5-1c0.1-0.2,1-1.6,3.2-1.6c3.3,0,7.3,1.3,7.3,7.7c0,3.8-1.3,6.7-3.9,8.8c-2.6,2.1-6.5,3.2-11.1,3.2
		c-7.4,0-12.2-3.3-14.8-6.1c-3.3-3.4-4.7-7.4-4.7-9.9c0-2.5,1.1-3.1,1.7-3.1h1.5l-0.3-1.5c-0.3-1.5-1.6-4.3-4.7-4.3
		c-3.2,0-5.3,2.4-5.3,6.2c0,2.1,0.6,4.3,1.6,6.4h-72.5c0-0.5,0-1-0.1-1.6c-0.8-9.6-6.8-18.1-16.8-23.9C349,3.2,340,0.7,330.2,0.1
		c-3.7-0.2-7.5-0.2-11.3,0.2c-9.5,0.8-20.1,4.5-28.4,9.8c-6.8,4.3-11.2,9.2-12.6,13.8c-1.4-4.6-5.8-9.5-12.6-13.8
		c-8.3-5.3-18.9-8.9-28.4-9.8c-3.8-0.3-7.6-0.4-11.3-0.2c-9.8,0.6-18.8,3.1-26.1,7.3c-10,5.8-15.9,14.3-16.8,23.9
		c0,0.5-0.1,1.1-0.1,1.6h-70.9c1-2.2,1.6-4.4,1.6-6.4c0-3.8-2.1-6.2-5.3-6.2c-3,0-4.4,2.8-4.7,4.3l-0.3,1.5h1.5
		c0.6,0,1.7,0.7,1.7,3.1c0,2.4-1.5,6.4-4.7,9.9c-2.7,2.8-7.4,6.1-14.8,6.1c-4.7,0-8.5-1.1-11.1-3.2c-2.6-2.1-3.9-5.1-3.9-8.8
		c0-6.4,4-7.7,7.3-7.7c2.2,0,3.1,1.4,3.2,1.6l0.5,1l1-0.4c1.4-0.6,2.2-2.7,1.8-4.9c-0.2-0.8-0.6-2-1.7-2.9c-1.3-1.2-3.3-1.8-5.8-1.8
		c-5.6,0-10.4,3.7-12.1,8.9c-1-2.2-2.9-4.2-5.4-5.8c-6.1-3.9-14.3-3.2-23,1.8c-8.1,4.7-16.1,12.7-22.3,22.6
		C10.4,53,6.7,60.8,4.1,68.4c-2.3,6.9-3.7,13.5-4,19.7c-0.3,5.6,0.3,10.8,1.8,14.9c1.4,4,3.5,7,6.1,8.7c0.9,0.6,1.9,1,2.8,1.3
		c-0.9,0.3-1.8,0.8-2.8,1.3c-2.6,1.7-4.8,4.7-6.1,8.7c-1.4,4.1-2,9.3-1.8,14.9c0.3,6.2,1.6,12.8,4,19.7c2.6,7.6,6.4,15.4,11.3,23.1
		c6.2,9.9,14.2,17.9,22.3,22.6c8.7,5,16.9,5.6,23,1.8c3.2-2,5.3-4.7,6.1-7.7c2.1,4.3,6.5,7.2,11.4,7.2c2.5,0,4.4-0.6,5.8-1.8
		c1.1-1,1.5-2.2,1.7-2.9c0.4-2.1-0.4-4.3-1.8-4.9l-1-0.4l-0.5,1c-0.1,0.2-1,1.6-3.2,1.6c-3.3,0-7.3-1.3-7.3-7.7
		c0-3.8,1.3-6.7,3.9-8.8c2.6-2.1,6.5-3.2,11.1-3.2c7.4,0,12.2,3.3,14.8,6.1c3.3,3.4,4.7,7.4,4.7,9.9c0,2.5-1.1,3.1-1.7,3.1h-1.5
		l0.3,1.5c0.3,1.5,1.6,4.3,4.7,4.3c3.2,0,5.3-2.4,5.3-6.2c0-1.1-0.2-2.3-0.5-3.5h69.8c0,0.5,0,1.1,0.1,1.6
		c0.8,9.6,6.8,18.1,16.8,23.9c7.2,4.2,16.3,6.7,26.1,7.3c3.7,0.2,7.5,0.2,11.3-0.2c9.5-0.8,20.1-4.5,28.4-9.8
		c6.8-4.3,11.2-9.2,12.6-13.8c1.4,4.6,5.8,9.5,12.6,13.8c8.3,5.3,18.9,8.9,28.4,9.8c3.8,0.3,7.6,0.4,11.3,0.2
		c9.8-0.6,18.8-3.1,26.1-7.3c10-5.8,15.9-14.3,16.8-23.9c0-0.5,0.1-1.1,0.1-1.6h71.4c-0.3,1.2-0.5,2.3-0.5,3.5
		c0,3.8,2.1,6.2,5.3,6.2c3,0,4.4-2.8,4.7-4.3l0.3-1.5h-1.5c-0.6,0-1.7-0.7-1.7-3.1c0-2.4,1.5-6.4,4.7-9.9c2.7-2.8,7.4-6.1,14.8-6.1
		c4.7,0,8.5,1.1,11.1,3.2c2.6,2.1,3.9,5.1,3.9,8.8c0,6.4-4,7.7-7.3,7.7c-2.2,0-3.1-1.4-3.2-1.6l-0.5-1l-1,0.4
		c-1.4,0.6-2.2,2.7-1.8,4.9c0.2,0.8,0.6,2,1.7,2.9c1.3,1.2,3.3,1.8,5.8,1.8c5,0,9.3-3,11.4-7.2c0.8,3,2.9,5.7,6.1,7.7
		c6.1,3.9,14.3,3.2,23-1.8c8.1-4.7,16.1-12.7,22.3-22.6c4.9-7.7,8.7-15.5,11.3-23.1c2.3-6.9,3.7-13.5,4-19.7
		c0.3-5.6-0.3-10.8-1.8-14.9C554.2,119,552.1,116,549.5,114.4z M538.6,115.3c-0.3,0.4-0.5,0.8-0.6,1.2c-2.8-2.5-5.8-4.3-8.7-5
		c2.8-0.7,5.6-2.3,8.3-4.7c-0.1,1.2,0.2,2.6,1,3.9c0.7,1,1.6,1.8,2.6,2.3C540.2,113.5,539.3,114.3,538.6,115.3z M450.5,39.6h-78.2
		c0.5-1.4,0.8-3.1,0.8-4.9h73.4C447.6,36.4,448.9,38.1,450.5,39.6z M296.5,9.8c0.2-0.1,0.4-0.2,0.6-0.3c0,0.1-0.1,0.1-0.1,0.2
		C296.8,9.7,296.7,9.8,296.5,9.8z M256.4,12.9c0.2,0.1,0.5,0.1,0.7,0.2c-0.1,0.1-0.2,0.2-0.3,0.2c-0.2,0.1-0.3,0-0.4-0.1
		C256.4,13,256.4,12.9,256.4,12.9z M182.7,34.7c0.1,1.8,0.4,3.5,0.8,4.9H107c1.6-1.6,2.9-3.2,3.9-4.9H182.7z M18.8,110.7
		c0.9-1.4,1.2-2.7,1-3.9c2.7,2.3,5.6,3.9,8.3,4.7c-2.9,0.8-6,2.5-8.7,5c-0.2-0.4-0.4-0.8-0.6-1.2c-0.7-1-1.6-1.8-2.6-2.3
		C17.2,112.6,18.2,111.8,18.8,110.7z M109.5,185.8h74c-0.5,1.4-0.8,3.1-0.8,4.9h-70.3C111.7,189.1,110.7,187.5,109.5,185.8z
		 M256.4,212.3c0.1-0.1,0.2-0.2,0.4-0.1c0.1,0,0.2,0.1,0.3,0.2c-0.2,0.1-0.5,0.1-0.7,0.2C256.4,212.5,256.4,212.4,256.4,212.3z
		 M297,215.8c0,0.1,0.1,0.1,0.1,0.2c-0.2-0.1-0.4-0.2-0.6-0.3C296.7,215.7,296.8,215.8,297,215.8z M373.1,190.8
		c-0.1-1.8-0.4-3.5-0.8-4.9h75.6c-1.2,1.6-2.1,3.3-2.8,4.9H373.1z M553.9,140.3c-0.3,4.2-1,8.6-2.3,13.1c-0.2-0.9-0.5-1.6-0.9-2.3
		c-0.7-1-1.5-1.8-2.4-2.1c-0.9-0.3-1.9-0.2-2.7,0.3c-1.6,1-1.7,2.7-1,3.7c0.6,1,1.9,1.6,3,0.9c0.3-0.2,0.5-0.6,0.6-0.9
		c0-0.4-0.1-0.7-0.5-1l-0.3-0.2l-0.3,0.2l0,0c-0.1,0-0.2-0.1-0.2-0.2c-0.1-0.1-0.1-0.3,0.1-0.4c0.3-0.2,1.1-0.3,1.8,0.8
		c1.6,2.5,1.1,6.7-1.4,11.3c-2.8,5.3-7.9,10.5-14.2,14.6c-3.9,2.5-9.6,5.5-15.3,5.1c-2.5-0.2-5.8-1.2-7.3-3.5
		c-0.7-1.1-0.9-2.2-0.5-3.1c0.3-0.7,0.9-1.1,1-1.2c0.6-0.4,1.5-0.6,1.9,0.2c0.1,0.2,0.3,0.6-0.2,1l-0.1,0.1l-0.2,0.1l0,0.3
		c0,0.2,0.2,0.7,0.6,0.9c0.3,0.1,0.7,0.2,1.4-0.2c1.2-0.8,1.4-2.4,0.6-3.7c-0.5-0.8-1.4-1.4-2.3-1.6c-0.7-0.2-1.9-0.2-3.2,0.7
		c-1.1,0.7-1.9,1.9-2.1,3.2c-0.3,1.5,0.1,3.1,1.2,4.7c1.9,3,5.7,4.3,10.6,3.9c4.6-0.4,9.8-2.4,14.6-5.6c3.7-2.5,7-5.2,9.7-8
		c0.7-0.8,1.4-1.5,2-2.3c-1.7,3.5-3.6,7-5.8,10.4c-5,7.9-13.3,18.2-24.1,22.3c-4.8,1.8-11.7,2.6-16.5-0.4c-2.3-1.5-3.5-3.3-3.5-5.3
		c0-1.6,0.7-2.8,0.9-3c0.8-1.2,2.2-2.3,3.8-1.3c0.3,0.2,1,1,0.4,2l-0.1,0.2l-0.2,0.4l0.3,0.5c0.2,0.4,0.9,1.1,1.9,1.1
		c0.6,0,1.5-0.3,2.4-1.6c1.5-2.4,0.6-5.7-2.1-7.4c-1.7-1.1-3.7-1.4-5.6-1c-1.5,0.3-3.5,1.2-5.2,3.8c-0.4-4.5-2.3-8.3-5.6-10.9
		c-3.7-3-9.1-4.5-15.8-4.5c-6.2,0-13.1,2.7-18.4,7.2c-1.1,0.9-2.1,1.9-2.9,2.9h-77.8c-0.1-0.1-0.1-0.2-0.1-0.3
		c-1.5-2.6-3.9-4.2-7-4.4c-0.5,0-1.1-0.1-1.6,0c-3.4,0.2-5.7,2.2-6,5l-0.1,0.9l0.8,0.2c0.7,0.1,2.9,0.7,4.7,2.9
		c1.7,2.1,2.4,4.9,2.1,8.3c-0.4,4.3-3.6,11.5-11.3,17.4c-4.6,3.5-12.6,7.8-24.6,8.5c-3,0.2-6.2,0.1-9.4-0.2c-3-0.3-6-0.8-8.8-1.4
		c2.2,0,4.6-0.2,7.1-0.6c3.9-0.7,8-1.9,12.1-3.7c5.3-2.3,9.8-5.5,12.6-9.1c3.1-3.8,4-7.8,2.6-11c-0.8-1.7-1.9-3-3.3-3.6
		c-1.2-0.5-2.6-0.5-3.8,0c-1.4,0.6-2.1,1.6-2.3,2.3c-0.3,0.9-0.3,1.9,0.1,2.8c0.6,1.4,2.1,2.1,3.4,1.6c0.7-0.3,0.9-0.7,1-1
		c0.1-0.5-0.2-0.8-0.4-1l-0.2-0.2l-0.2,0.1l-0.1,0c-0.6,0.2-0.9-0.2-0.9-0.3c-0.4-0.8,0.3-1.4,0.9-1.7c0.1-0.1,0.8-0.3,1.5-0.2
		c1,0.2,1.8,0.9,2.3,2.1c1.1,2.6,0.2,5.8-1.1,8c-2.8,5-8.4,8.2-12.6,10c-6.9,3-14,4.4-20,3.8c-3.7-0.3-6.8-1.4-8.6-3
		c0.7,0,1.5,0.1,2.2,0c6.3-0.1,12.3-2.3,16.5-5.9c5.5-4.8,8.1-9.8,7.9-14.8c-0.2-4.1-2.2-7.2-3.9-9.1c-3.6-4.1-11.9-6.7-18.3-1.2
		c-2.4,2.1-4,4.8-4.3,7.6c-0.3,2.8,0.6,5.6,2.6,7.8c0.8,0.9,1.8,1.4,2.8,1.4c0.4,0,0.7-0.1,1-0.3l0.1-0.1l0.1,0.1
		c2.3,1.9,5.2,2,7.3,0.1c0.3-0.3,1-0.9,1.4-1.7c0.5-1.1,0.4-2.3-0.2-3.4l-0.4-0.8l-0.9,0.3l-0.1,0c-0.6,0.3-1.8-0.4-2.5-1.2
		c-1.4-1.5-1.2-3.5,0.4-4.9c1.7-1.5,3.4-1.9,5.2-1.3c1.4,0.5,2.4,1.5,2.9,2.1c1.9,2.2,2.8,4.5,2.7,7c-0.1,2.3-1,4.6-2.8,6.9
		l-0.1,0.1l-0.2-0.1c-0.7-0.3-1.5-0.2-2.6,0.2l-0.4,0.2l-0.2,0.4c-0.4,1.2-1.4,2.6-2.7,3.7c-1.4,1.2-3.7,2.7-7.1,3.2
		c-1.7,0.2-3.4,0.2-5-0.1c0.1-0.5,0-1.1-0.2-1.6c-0.5-1.2-1.9-2-3.7-1.2c-0.5,0.2-0.9,0.5-1.2,0.9c-0.9-0.5-1.6-1.2-2.2-1.9
		c-1.5-1.7-1.1-2.8-0.7-3.1l1-0.9l-1.1-0.8c-1.1-0.8-3.6-1.9-5.7-0.1c-1.3,1.1-1.8,2.6-1.5,4.2c-1-1-1.8-2.1-2.6-3.2
		c-1.7-2.5-2.4-4.8-2.3-6.6c0.1-1,0.4-1.5,1-1.5c0.1,0,0.1,0,0.2,0l0.9,0.1l0.1-0.9c0.1-1.5-1-2.7-2.5-2.8c-0.9-0.1-1.9,0.3-2.6,1
		c-0.4,0.4-0.6,0.8-0.9,1.3c-0.2-0.5-0.5-1-0.9-1.3c-0.7-0.7-1.6-1.1-2.6-1c-1.5,0.1-2.6,1.4-2.5,2.8l0.1,0.9l0.9-0.1
		c0.1,0,0.1,0,0.2,0c0.6,0,0.9,0.6,1,1.5c0.2,1.9-0.6,4.2-2.3,6.6c-0.3,0.4-0.6,0.9-1,1.3c-0.2-0.9-0.7-1.7-1.5-2.3
		c-2-1.8-4.6-0.7-5.7,0.1l-1.1,0.8l1,0.9c0.4,0.4,0.8,1.5-0.7,3.1c-0.9,1.1-2.1,1.9-3.5,2.6c-0.3-0.7-0.8-1.3-1.6-1.6
		c-1.7-0.8-3.2,0-3.7,1.2c-0.2,0.6-0.3,1.2-0.1,1.8c-1.1,0.1-2.3,0.1-3.5-0.1c-3.4-0.5-5.7-2-7.1-3.2c-1.3-1.1-2.3-2.5-2.7-3.7
		l-0.2-0.4l-0.4-0.2c-1-0.5-1.9-0.6-2.6-0.2l-0.2,0.1l-0.1-0.1c-1.7-2.3-2.7-4.6-2.8-6.9c-0.1-2.5,0.8-4.9,2.7-7
		c0.5-0.6,1.5-1.6,2.9-2.1c1.8-0.6,3.5-0.2,5.2,1.3c1.6,1.4,1.7,3.4,0.4,4.9c-0.6,0.7-1.9,1.4-2.5,1.2l-0.1,0l-0.9-0.3l-0.4,0.8
		c-0.7,1.2-0.8,2.4-0.2,3.4c0.4,0.9,1.1,1.4,1.4,1.7c2.1,1.9,5,1.8,7.3-0.1l0.1-0.1l0.1,0.1c0.3,0.2,0.7,0.2,1,0.3
		c1,0,2-0.5,2.8-1.4c2-2.3,2.9-5,2.6-7.8c-0.3-2.8-1.8-5.5-4.3-7.6c-6.4-5.6-14.7-2.9-18.3,1.2c-1.7,1.9-3.7,5.1-3.9,9.1
		c-0.3,5,2.4,10,7.9,14.8c4.1,3.6,10.1,5.8,16.5,5.9c0.2,0,0.4,0,0.5,0c-1.8,1.6-4.8,2.6-8.5,3c-6,0.5-13.1-0.8-20-3.8
		c-4.2-1.8-9.8-5.1-12.6-10c-1.2-2.2-2.2-5.5-1.1-8c0.5-1.2,1.3-2,2.3-2.1c0.8-0.1,1.4,0.1,1.5,0.2c0.6,0.3,1.3,0.9,0.9,1.7
		c-0.1,0.2-0.4,0.6-0.9,0.3l-0.1,0l-0.2-0.1l-0.2,0.2c-0.2,0.1-0.4,0.5-0.4,1c0,0.3,0.2,0.7,1,1c1.3,0.6,2.8-0.1,3.4-1.6
		c0.4-0.9,0.4-1.9,0.1-2.8c-0.3-0.7-0.9-1.7-2.3-2.3c-1.2-0.5-2.6-0.5-3.8,0c-1.4,0.6-2.6,1.8-3.3,3.6c-1.4,3.3-0.5,7.2,2.6,11
		c2.9,3.6,7.4,6.8,12.6,9.1c4.1,1.8,8.2,3,12.1,3.7c2.5,0.4,4.8,0.6,7.1,0.6c-2.9,0.7-5.8,1.2-8.8,1.4c-3.2,0.3-6.4,0.3-9.4,0.2
		c-12.1-0.7-20.1-5-24.6-8.5c-7.7-5.9-10.9-13.1-11.3-17.4c-0.3-3.4,0.4-6.2,2.1-8.3c1.8-2.2,4.1-2.7,4.7-2.9l0.8-0.2l-0.1-0.9
		c-0.2-2.8-2.6-4.8-6-5c-0.5,0-1,0-1.6,0c-3.1,0.3-5.5,1.8-7,4.4c-0.1,0.1-0.1,0.2-0.2,0.3h-76.2c-0.9-1-1.9-2-3-2.9
		c-5.3-4.5-12.2-7.2-18.4-7.2c-6.7,0-12.1,1.5-15.8,4.5c-3.3,2.6-5.2,6.4-5.6,10.9c-1.7-2.5-3.8-3.4-5.2-3.8c-1.9-0.4-4,0-5.6,1
		c-2.7,1.7-3.6,5-2.1,7.4c0.8,1.3,1.8,1.6,2.4,1.6c1,0,1.6-0.7,1.9-1.1l0.3-0.5l-0.2-0.4l-0.1-0.2c-0.6-1.1,0.1-1.8,0.4-2
		c1.6-1,3,0.1,3.8,1.3c0.1,0.2,0.9,1.4,0.9,3c0,2-1.2,3.8-3.5,5.3c-4.8,3-11.7,2.2-16.5,0.4c-10.8-4-19.1-14.3-24.1-22.3
		c-2.2-3.4-4.1-6.9-5.8-10.4c0.6,0.8,1.3,1.6,2,2.3c2.7,2.9,6,5.6,9.7,8c4.8,3.1,10,5.1,14.6,5.6c4.9,0.5,8.7-0.9,10.6-3.9
		c1-1.6,1.4-3.2,1.2-4.7c-0.2-1.3-1-2.5-2.1-3.2c-1.3-0.9-2.5-0.8-3.2-0.7c-0.9,0.2-1.8,0.8-2.3,1.6c-0.9,1.3-0.6,2.9,0.6,3.7
		c0.6,0.4,1.1,0.4,1.4,0.2c0.4-0.2,0.6-0.6,0.6-0.9l0-0.3l-0.2-0.1l-0.1-0.1c-0.5-0.3-0.3-0.8-0.2-1c0.5-0.8,1.4-0.6,1.9-0.2
		c0.1,0.1,0.7,0.5,1,1.2c0.4,0.9,0.2,1.9-0.5,3.1c-1.5,2.3-4.8,3.4-7.3,3.5c-5.7,0.4-11.4-2.5-15.3-5.1c-6.3-4.1-11.4-9.3-14.2-14.6
		c-2.5-4.6-3-8.8-1.4-11.3c0.7-1.1,1.5-1,1.8-0.8c0.2,0.1,0.2,0.3,0.1,0.4c-0.1,0.1-0.2,0.1-0.2,0.2l0,0l-0.3-0.2l-0.3,0.2
		c-0.3,0.2-0.5,0.6-0.5,1c0,0.4,0.2,0.7,0.6,0.9c1,0.7,2.3,0,3-0.9c0.7-1.1,0.6-2.7-1-3.7c-0.8-0.5-1.7-0.6-2.7-0.3
		c-0.9,0.3-1.7,1-2.4,2.1c-0.4,0.6-0.7,1.4-0.9,2.3c-1.2-4.5-2-8.9-2.3-13.1c-0.7-10.6,1.9-18.9,7-22.1c2.2-1.4,3.6-0.6,4,0.1
		c0.2,0.3,0.1,0.7-0.2,0.8c-0.2,0.1-0.4,0.1-0.5,0.1l-0.1,0l-0.4-0.7l-0.7,0.2c-0.8,0.2-1.4,0.7-1.6,1.4c-0.3,0.7-0.2,1.5,0.2,2.2
		c0.6,0.9,1.4,1.4,2.4,1.6c-1.7,3-2.7,6.2-2.9,9.3c-0.6,7.2,0.9,12.7,4.6,16.1c3,2.8,6.6,3.6,9.2,3.8c5.4,0.5,13.2-3.4,13.9-11.8
		c0.3-3.2-0.5-6.2-2.2-8.5c-1.7-2.2-4.3-3.6-7.3-3.9c-1.2-0.1-2.3,0.2-3,1c-0.3,0.3-0.4,0.6-0.6,0.9l0,0.1l-0.1,0
		c-3,0.2-5.1,2.1-5.3,5c0,0.4-0.1,1.3,0.2,2.2c0.4,1.1,1.3,1.9,2.6,2.3l0.9,0.3l0.4-0.9l0-0.1c0.2-0.6,1.6-1,2.6-0.9
		c2,0.2,3.3,1.7,3.1,3.8c-0.2,2.2-1.1,3.7-2.9,4.5c-1.3,0.6-2.8,0.6-3.5,0.6c-2.9-0.2-5.2-1.3-6.8-3.2c-1.5-1.7-2.4-4-2.8-6.9l0-0.2
		l0.2-0.1c0.7-0.2,1.3-0.9,1.7-2l0.2-0.4l-0.2-0.4c-0.5-1.1-0.8-2.8-0.6-4.5c0.2-1.8,0.8-4.4,2.8-7.1c0.7-0.5,1.3-1.1,1.7-1.8
		c1.2-1.1,2.5-2.1,3.9-2.8c2-1,4.1-1.4,6.1-1.3c2.2,0.2,2.7,1.2,2.7,1.8l-0.1,1.3l1.3-0.1c1.4-0.1,4-1.1,4.2-3.8
		c0.2-2.3-1-4-3.2-4.8c2.2-0.8,3.4-2.5,3.2-4.8c-0.2-2.7-2.8-3.7-4.2-3.8l-1.3-0.1l0.1,1.3c0,0.5-0.5,1.6-2.7,1.8
		c-1.9,0.2-4-0.3-6.1-1.3c-2.1-1-4-2.6-5.5-4.5c-2.1-2.7-2.7-5.4-2.9-7.2c-0.1-1.7,0.1-3.4,0.6-4.5l0.2-0.4l-0.2-0.4
		c-0.4-1.1-1-1.7-1.7-2l-0.2-0.1l0-0.2c0.3-2.8,1.2-5.1,2.8-6.9c1.7-1.9,4-2.9,6.8-3.2c0.7-0.1,2.2-0.1,3.5,0.6
		c1.7,0.8,2.7,2.3,2.9,4.5c0.2,2.1-1.1,3.6-3.1,3.8c-1,0.1-2.4-0.3-2.6-0.9l0-0.1l-0.4-0.9l-0.9,0.3c-1.3,0.4-2.2,1.2-2.6,2.3
		c-0.3,0.9-0.2,1.8-0.2,2.2c0.2,2.8,2.3,4.8,5.3,5l0.1,0l0,0.1c0.1,0.3,0.3,0.6,0.6,0.9c0.7,0.7,1.8,1.1,3,1c3-0.3,5.6-1.6,7.3-3.9
		c1.7-2.2,2.5-5.2,2.2-8.5c-0.7-8.4-8.6-12.3-13.9-11.8c-2.5,0.2-6.2,1.1-9.2,3.8c-3.7,3.5-5.2,8.9-4.6,16.1c0.4,4.2,2.1,8.6,5,12.4
		c-1.7-0.4-3.5,0-4.4,1.5c-0.4,0.7-0.5,1.5-0.2,2.2c0.3,0.7,0.9,1.2,1.6,1.4l0.7,0.2l0.4-0.7l0.1,0c0.1,0,0.4,0,0.5,0.1
		c0.2,0.2,0.4,0.5,0.2,0.8c-0.4,0.6-1.8,1.5-4,0.1c-5.1-3.2-7.7-11.5-7-22.1c0.3-4.3,1.1-8.8,2.3-13.4c0.2,0.7,0.4,1.4,0.8,2
		c0.7,1,1.5,1.8,2.4,2.1c0.9,0.3,1.9,0.2,2.7-0.3c1.6-1,1.7-2.7,1-3.7c-0.6-1-1.9-1.6-3-0.9c-0.3,0.2-0.5,0.6-0.6,0.9
		c0,0.4,0.1,0.7,0.5,1l0.3,0.2l0.3-0.2l0,0c0.1,0,0.2,0.1,0.2,0.2c0.1,0.1,0.1,0.3-0.1,0.4c-0.3,0.2-1.1,0.3-1.8-0.8
		c-1.6-2.5-1.1-6.7,1.4-11.3c2.8-5.3,7.9-10.5,14.2-14.6c3.9-2.5,9.6-5.5,15.3-5.1c2.5,0.2,5.8,1.2,7.3,3.5c0.7,1.1,0.9,2.2,0.5,3.1
		c-0.3,0.7-0.9,1.1-1,1.2c-0.6,0.4-1.5,0.6-1.9-0.2c-0.1-0.2-0.3-0.6,0.2-1l0.1-0.1l0.2-0.1l0-0.3c0-0.2-0.2-0.7-0.6-0.9
		c-0.3-0.1-0.7-0.2-1.4,0.2c-1.2,0.8-1.4,2.4-0.6,3.7c0.5,0.8,1.4,1.4,2.3,1.6c0.7,0.2,1.9,0.2,3.2-0.7c1.1-0.7,1.9-1.9,2.1-3.2
		c0.3-1.5-0.1-3.1-1.2-4.7c-1.9-3-5.7-4.3-10.6-3.9c-4.6,0.4-9.8,2.4-14.6,5.6c-3.7,2.5-7,5.2-9.7,8c-0.5,0.5-0.9,1-1.3,1.5
		c1.5-3,3.2-6,5.1-9c5-7.9,13.3-18.2,24.1-22.3c4.8-1.8,11.7-2.6,16.5,0.4c2.3,1.5,3.5,3.3,3.5,5.3c0,1.6-0.7,2.8-0.9,3
		c-0.8,1.2-2.2,2.3-3.8,1.3c-0.3-0.2-1-1-0.4-2l0.1-0.2l0.2-0.4l-0.3-0.5c-0.2-0.4-0.9-1.1-1.9-1.1c-0.6,0-1.5,0.3-2.4,1.6
		c-1.5,2.4-0.6,5.7,2.1,7.4c1.7,1.1,3.7,1.4,5.6,1c1.5-0.3,3.7-1.3,5.4-3.9c0.1-0.2,0.2-0.4,0.3-0.6c0.8,3.3,2.6,6.1,5.2,8.1
		c3.7,3,9.1,4.5,15.8,4.5c6.2,0,13.1-2.7,18.4-7.2c0.1-0.1,0.1-0.1,0.2-0.2v0.3h78.9c0.1,0.1,0.1,0.2,0.2,0.3c1.5,2.6,3.9,4.2,7,4.4
		c0.5,0,1.1,0.1,1.6,0c3.4-0.2,5.7-2.2,6-5l0.1-0.9l-0.8-0.2c-0.7-0.1-2.9-0.7-4.7-2.9c-1.7-2.1-2.4-4.9-2.1-8.3
		c0.4-4.3,3.6-11.5,11.3-17.4c4.6-3.5,12.6-7.8,24.6-8.5c3-0.2,6.2-0.1,9.4,0.2c3,0.3,6,0.8,8.8,1.4c-2.2,0-4.6,0.2-7.1,0.6
		c-3.9,0.7-8,1.9-12.1,3.7c-5.3,2.3-9.8,5.5-12.6,9.1c-3.1,3.8-4,7.8-2.6,11c0.8,1.7,1.9,3,3.3,3.6c1.2,0.5,2.6,0.5,3.8,0
		c1.4-0.6,2.1-1.6,2.3-2.3c0.3-0.9,0.3-1.9-0.1-2.8c-0.6-1.4-2.1-2.1-3.4-1.6c-0.7,0.3-0.9,0.7-1,1c-0.1,0.5,0.2,0.8,0.4,1l0.2,0.2
		l0.2-0.1l0.1,0c0.6-0.2,0.9,0.2,0.9,0.3c0.4,0.8-0.3,1.4-0.9,1.7c-0.1,0.1-0.8,0.3-1.5,0.2c-1-0.2-1.8-0.9-2.3-2.1
		c-1.1-2.6-0.2-5.8,1.1-8c2.8-5,8.4-8.2,12.6-10c6.9-3,14-4.4,20-3.8c3.7,0.3,6.7,1.4,8.5,3c-0.2,0-0.4,0-0.5,0
		c-6.3,0.1-12.3,2.3-16.5,5.9c-5.5,4.8-8.1,9.8-7.9,14.8c0.2,4.1,2.2,7.2,3.9,9.1c3.6,4.1,11.9,6.7,18.3,1.2c2.4-2.1,4-4.8,4.3-7.6
		c0.3-2.8-0.6-5.6-2.6-7.8c-0.8-0.9-1.8-1.4-2.8-1.4c-0.4,0-0.7,0.1-1,0.3l-0.1,0.1l-0.1-0.1c-2.3-1.9-5.2-2-7.3-0.1
		c-0.3,0.3-1,0.9-1.4,1.7c-0.5,1.1-0.4,2.3,0.2,3.4l0.4,0.8l0.9-0.3l0.1,0c0.6-0.3,1.8,0.4,2.5,1.2c1.4,1.5,1.2,3.5-0.4,4.9
		c-1.7,1.5-3.4,1.9-5.2,1.3c-1.4-0.5-2.4-1.5-2.9-2.1c-1.9-2.2-2.8-4.5-2.7-7c0.1-2.3,1-4.6,2.8-6.9l0.1-0.1l0.2,0.1
		c0.7,0.3,1.5,0.2,2.6-0.2l0.4-0.2l0.2-0.4c0.4-1.2,1.4-2.6,2.7-3.7c1.4-1.2,3.7-2.7,7.1-3.2c1.2-0.2,2.3-0.2,3.5-0.1
		c-0.2,0.6-0.1,1.2,0.1,1.8c0.5,1.2,1.9,2,3.7,1.2c0.7-0.3,1.3-0.9,1.6-1.6c1.4,0.7,2.6,1.6,3.5,2.6c1.5,1.7,1.1,2.8,0.7,3.1l-1,0.9
		l1.1,0.8c1.1,0.8,3.6,1.9,5.7,0.1c0.8-0.7,1.3-1.5,1.5-2.3c0.3,0.4,0.7,0.9,1,1.3c1.7,2.5,2.4,4.8,2.3,6.6c-0.1,1-0.4,1.5-1,1.5
		c-0.1,0-0.1,0-0.2,0l-0.9-0.1l-0.1,0.9c-0.1,1.5,1,2.7,2.5,2.8c0.9,0.1,1.9-0.3,2.6-1c0.4-0.4,0.6-0.8,0.9-1.3
		c0.2,0.5,0.5,1,0.9,1.3c0.7,0.7,1.6,1.1,2.6,1c1.5-0.1,2.6-1.4,2.5-2.8l-0.1-0.9l-0.9,0.1c-0.1,0-0.1,0-0.2,0c-0.6,0-0.9-0.6-1-1.5
		c-0.2-1.9,0.6-4.2,2.3-6.6c0.7-1.1,1.6-2.1,2.6-3.2c-0.3,1.5,0.2,3,1.5,4.2c2,1.8,4.6,0.7,5.7-0.1l1.1-0.8l-1-0.9
		c-0.4-0.4-0.8-1.5,0.7-3.1c0.6-0.7,1.4-1.4,2.2-1.9c0.3,0.4,0.7,0.7,1.2,0.9c1.7,0.8,3.2,0,3.7-1.2c0.2-0.5,0.3-1.1,0.2-1.6
		c1.6-0.3,3.3-0.3,5-0.1c3.4,0.5,5.7,2,7.1,3.2c1.3,1.1,2.3,2.5,2.7,3.7l0.2,0.4l0.4,0.2c1,0.5,1.9,0.6,2.6,0.2l0.2-0.1l0.1,0.1
		c1.7,2.3,2.7,4.6,2.8,6.9c0.1,2.5-0.8,4.9-2.7,7c-0.5,0.6-1.5,1.6-2.9,2.1c-1.8,0.6-3.5,0.2-5.2-1.3c-1.6-1.4-1.7-3.4-0.4-4.9
		c0.6-0.7,1.9-1.4,2.5-1.2l0.1,0l0.9,0.3l0.4-0.8c0.7-1.2,0.8-2.4,0.2-3.4c-0.4-0.9-1.1-1.4-1.4-1.7c-2.1-1.9-5-1.8-7.3,0.1
		l-0.1,0.1l-0.1-0.1c-0.3-0.2-0.7-0.2-1-0.3c-1,0-2,0.5-2.8,1.4c-2,2.3-2.9,5-2.6,7.8c0.3,2.8,1.8,5.5,4.3,7.6
		c6.4,5.6,14.7,2.9,18.3-1.2c1.7-1.9,3.7-5.1,3.9-9.1c0.3-5-2.4-10-7.9-14.8c-4.1-3.6-10.1-5.8-16.5-5.9c-0.8,0-1.5,0-2.2,0
		c1.8-1.6,4.8-2.7,8.6-3c6-0.5,13.1,0.8,20,3.8c4.2,1.8,9.8,5.1,12.6,10c1.2,2.2,2.2,5.5,1.1,8c-0.5,1.2-1.3,2-2.3,2.1
		c-0.8,0.1-1.4-0.1-1.5-0.2c-0.6-0.3-1.3-0.9-0.9-1.7c0.1-0.2,0.4-0.6,0.9-0.3l0.1,0l0.2,0.1l0.2-0.2c0.2-0.1,0.4-0.5,0.4-1
		c0-0.3-0.2-0.7-1-1c-1.3-0.6-2.8,0.1-3.4,1.6c-0.4,0.9-0.4,1.9-0.1,2.8c0.3,0.7,0.9,1.7,2.3,2.3c1.2,0.5,2.6,0.5,3.8,0
		c1.4-0.6,2.6-1.8,3.3-3.6c1.4-3.3,0.5-7.2-2.6-11c-2.9-3.6-7.4-6.8-12.6-9.1c-4.1-1.8-8.2-3-12.1-3.7c-2.5-0.4-4.8-0.6-7.1-0.6
		c2.9-0.7,5.8-1.2,8.8-1.4c3.2-0.3,6.4-0.3,9.4-0.2c12.1,0.7,20.1,5,24.6,8.5c7.7,5.9,10.9,13.1,11.3,17.4c0.3,3.4-0.4,6.2-2.1,8.3
		c-1.8,2.2-4.1,2.7-4.7,2.9l-0.8,0.2l0.1,0.9c0.2,2.8,2.6,4.8,6,5c0.5,0,1,0,1.6,0c3.1-0.3,5.5-1.8,7-4.4c0.1-0.1,0.1-0.2,0.1-0.3
		H452v-0.3c0.1,0.1,0.1,0.1,0.2,0.2c5.3,4.5,12.2,7.2,18.4,7.2c6.7,0,12.1-1.5,15.8-4.5c2.6-2.1,4.3-4.8,5.2-8.1
		c0.1,0.2,0.2,0.4,0.3,0.6c1.7,2.7,3.9,3.6,5.4,3.9c1.9,0.4,4,0,5.6-1c2.7-1.7,3.6-5,2.1-7.4c-0.8-1.3-1.8-1.6-2.4-1.6
		c-1,0-1.6,0.7-1.9,1.1l-0.3,0.5l0.2,0.4l0.1,0.2c0.6,1.1-0.1,1.8-0.4,2c-1.6,1-3-0.1-3.8-1.3c-0.1-0.2-0.9-1.4-0.9-3
		c0-2,1.2-3.8,3.5-5.3c4.8-3,11.7-2.2,16.5-0.4c10.8,4,19.1,14.3,24.1,22.3c1.9,3,3.6,6,5.1,9c-0.4-0.5-0.9-1-1.3-1.5
		c-2.7-2.9-6-5.6-9.7-8c-4.8-3.1-10-5.1-14.6-5.6c-4.9-0.5-8.7,0.9-10.6,3.9c-1,1.6-1.4,3.2-1.2,4.7c0.2,1.3,1,2.5,2.1,3.2
		c1.3,0.9,2.5,0.8,3.2,0.7c0.9-0.2,1.8-0.8,2.3-1.6c0.9-1.3,0.6-2.9-0.6-3.7c-0.6-0.4-1.1-0.4-1.4-0.2c-0.4,0.2-0.6,0.6-0.6,0.9
		l0,0.3l0.2,0.1l0.1,0.1c0.5,0.3,0.3,0.8,0.2,1c-0.5,0.8-1.4,0.6-1.9,0.2c-0.1-0.1-0.7-0.5-1-1.2c-0.4-0.9-0.2-1.9,0.5-3.1
		c1.5-2.3,4.8-3.4,7.3-3.5c5.7-0.4,11.4,2.5,15.3,5.1c6.3,4.1,11.4,9.3,14.2,14.6c2.5,4.6,3,8.8,1.4,11.3c-0.7,1.1-1.5,1-1.8,0.8
		c-0.2-0.1-0.2-0.3-0.1-0.4c0.1-0.1,0.2-0.1,0.2-0.2l0,0l0.3,0.2l0.3-0.2c0.3-0.2,0.5-0.6,0.5-1c0-0.4-0.2-0.7-0.6-0.9
		c-1-0.7-2.3,0-3,0.9c-0.7,1.1-0.6,2.7,1,3.7c0.8,0.5,1.7,0.6,2.7,0.3c0.9-0.3,1.7-1,2.4-2.1c0.4-0.6,0.6-1.2,0.8-2
		c1.3,4.6,2.1,9.1,2.3,13.4c0.7,10.6-1.9,18.9-7,22.1c-2.2,1.4-3.6,0.6-4-0.1c-0.2-0.3-0.1-0.7,0.2-0.8c0.2-0.1,0.4-0.1,0.5-0.1
		l0.1,0l0.4,0.7l0.7-0.2c0.8-0.2,1.4-0.7,1.6-1.4c0.3-0.7,0.2-1.5-0.2-2.2c-0.9-1.5-2.7-1.9-4.4-1.5c2.9-3.8,4.6-8.2,5-12.4
		c0.6-7.2-0.9-12.7-4.6-16.1c-3-2.8-6.6-3.6-9.2-3.8c-5.4-0.5-13.2,3.4-13.9,11.8c-0.3,3.2,0.5,6.2,2.2,8.5c1.7,2.2,4.3,3.6,7.3,3.9
		c1.2,0.1,2.3-0.2,3-1c0.3-0.3,0.4-0.6,0.6-0.9l0-0.1l0.1,0c3-0.2,5.1-2.1,5.3-5c0-0.4,0.1-1.3-0.2-2.2c-0.4-1.1-1.3-1.9-2.6-2.3
		l-0.9-0.3l-0.4,0.9l0,0.1c-0.2,0.6-1.6,1-2.6,0.9c-2-0.2-3.3-1.7-3.1-3.8c0.2-2.2,1.1-3.7,2.9-4.5c1.3-0.6,2.8-0.6,3.5-0.6
		c2.9,0.2,5.2,1.3,6.8,3.2c1.5,1.7,2.4,4,2.8,6.9l0,0.2l-0.2,0.1c-0.7,0.2-1.3,0.9-1.7,2l-0.2,0.4l0.2,0.4c0.5,1.1,0.8,2.8,0.6,4.5
		c-0.2,1.8-0.8,4.5-2.9,7.2c-1.5,1.9-3.4,3.5-5.5,4.5c-2,1-4.1,1.4-6.1,1.3c-2.2-0.2-2.7-1.2-2.7-1.8l0.1-1.3l-1.3,0.1
		c-1.4,0.1-4,1.1-4.2,3.8c-0.2,2.3,1,4,3.2,4.8c-2.2,0.8-3.4,2.5-3.2,4.8c0.2,2.7,2.8,3.7,4.2,3.8l1.3,0.1l-0.1-1.3
		c0-0.5,0.5-1.6,2.7-1.8c1.9-0.2,4,0.3,6.1,1.3c1.4,0.7,2.7,1.6,3.9,2.8c0.4,0.7,1,1.4,1.7,1.8c2.1,2.6,2.7,5.3,2.8,7.1
		c0.1,1.7-0.1,3.4-0.6,4.5l-0.2,0.4l0.2,0.4c0.4,1.1,1,1.7,1.7,2l0.2,0.1l0,0.2c-0.3,2.8-1.2,5.1-2.8,6.9c-1.7,1.9-4,2.9-6.8,3.2
		c-0.7,0.1-2.2,0.1-3.5-0.6c-1.7-0.8-2.7-2.3-2.9-4.5c-0.2-2.1,1.1-3.6,3.1-3.8c1-0.1,2.4,0.3,2.6,0.9l0,0.1l0.4,0.9l0.9-0.3
		c1.3-0.4,2.2-1.2,2.6-2.3c0.3-0.9,0.2-1.8,0.2-2.2c-0.2-2.8-2.3-4.8-5.3-5l-0.1,0l0-0.1c-0.1-0.3-0.3-0.6-0.6-0.9
		c-0.7-0.7-1.8-1.1-3-1c-3,0.3-5.6,1.6-7.3,3.9c-1.7,2.2-2.5,5.2-2.2,8.5c0.7,8.4,8.6,12.3,13.9,11.8c2.5-0.2,6.2-1.1,9.2-3.8
		c3.7-3.5,5.2-8.9,4.6-16.1c-0.3-3.1-1.3-6.3-2.9-9.3c0.9-0.2,1.8-0.7,2.4-1.6c0.4-0.7,0.5-1.5,0.2-2.2c-0.3-0.7-0.9-1.2-1.6-1.4
		l-0.7-0.2l-0.4,0.7l-0.1,0c-0.1,0-0.4,0-0.5-0.1c-0.2-0.2-0.4-0.5-0.2-0.8c0.4-0.6,1.8-1.5,4-0.1
		C551.9,121.4,554.5,129.7,553.9,140.3z"/>
</g>
</svg>
