<svg xmlns="http://www.w3.org/2000/svg" viewBox="0 0 307.78 326.51"><defs><style>.cls-1{fill:#c2968b;}</style></defs><g id="Layer_2" data-name="Layer 2"><g id="Layer_2_copy" data-name="Layer 2 copy"><path class="cls-1" d="M300.91,19.12c-1.54-.51-38.3-12.51-90-17.26C124-6.11,64.75,13,30.39,30.5l-.43.24C27.45,32.17,5.38,45.32.81,65.51c-2.09,9.26-.12,18.59,5.69,27,5,7.17,15.53,13.87,31.47,20-5.57,8.14-8.92,16.67-9.13,25.27-.28,11.26,4.73,27.18,30.18,39,21.83,10.17,53,15.66,87.64,15.66,7.11,0,14.37-.23,21.71-.7s14.51-1.16,21.46-2a11.58,11.58,0,0,0,1.86,0c11.33-1.22,32.39-2,40.7,1.21,3.09,1.19,3.77,2.37,3.54,3.82-4.29,6.59-24.34,23-60.29,26.71C113.47,227.77,88.4,203.24,88.2,203L80,195.41a11.87,11.87,0,0,0-7.63-2.75c-9.73-.51-14.9,11.3-8.06,18.23,9.11,9.25,23,18.25,41.39,24.28-4.49,9.83-2.3,21-1.67,23.72a42.59,42.59,0,0,0,11.38,21,49.19,49.19,0,0,0,9.57,7.68,30.34,30.34,0,0,0-1.17,15.32c1,5,4.11,12.14,13.09,17.49.16.1.33.19.51.28a56.28,56.28,0,0,0,27.33,5.8c1.32-.07,2.65-.2,4-.39a10,10,0,0,0-2.87-19.79c-7.67,1.11-15.59-1.56-19-3.23-3-1.87-3.35-3.49-3.47-4.11a9.33,9.33,0,0,1,.24-3.91,99.52,99.52,0,0,0,26.89,2.14l.79,0c17.72-.95,36-5.63,49.11-12.58l.18-.09c5-2.68,16.84-8.94,16.09-20-.47-6.94-5.58-12.25-15.19-15.78-11.27-4.15-27.47-5.34-42.27-3.1-13.66,2.06-32.49,8-44.71,24.34a28.41,28.41,0,0,1-4-3.18,23.2,23.2,0,0,1-6.84-11.37,6.14,6.14,0,0,0-.19-1c-.6-2.42-1.21-8.42.65-11.51.09-.15,1-1.24,2.27-2.66a174.48,174.48,0,0,0,38.47,2q6.12-.33,12.77-1c43.83-4.5,69.71-25.26,76.42-38.11l.28-.54.21-.57a22.53,22.53,0,0,0-8.1-26.17A82.83,82.83,0,0,0,261,168.34a10,10,0,1,0-11.19-16.57C220.23,171.71,119,182.62,67.46,158.61c-12.55-5.85-18.82-12.71-18.63-20.41.14-5.74,3.52-12.37,9.31-19.2a377.74,377.74,0,0,0,48.53,9.88c25.81,3.59,90.52,9.87,134.69-9.13,3.57-1.36,25.25-10.15,31.55-25.65a23.6,23.6,0,0,0-.62-19.47C263.94,57,225.65,52.14,203.57,50.81c-36.12-2.18-72.73,2.65-97.94,12.92C86.28,71.61,66.76,83,52.24,96.33c-16.59-5.56-26.57-11.28-29.3-15.22S19.47,73.75,20.31,70C22.5,60.18,34.89,51,39.71,48.2,97.49,18.92,163.42,17.64,208.59,21.74c49.38,4.47,85.46,16.17,86,16.37a10,10,0,0,0,6.27-19Zm-89.2,247.4-.45.25-.19.1c-10.49,5.56-26.07,9.48-40.81,10.27l-.66,0a87.35,87.35,0,0,1-14.29-.4C170.58,263.31,197.43,262.62,211.71,266.52ZM113.17,82.25c22.07-9,54.75-13.31,87.4-11.58,35,1.86,51.46,9.4,53.69,12.61a3.65,3.65,0,0,1,.13,3.27c-2.26,5.58-13.43,12-20.26,14.55l-.49.19c-27.42,11.87-73.86,14.78-124.22,7.78-12.45-1.73-23.67-3.84-33.58-6.14A175.47,175.47,0,0,1,113.17,82.25Z"/></g></g></svg>